<svg xmlns="http://www.w3.org/2000/svg" xmlns:xlink="http://www.w3.org/1999/xlink" width="762.143" height="595.332" viewBox="0 0 762.143 595.332">
  <defs>
    <linearGradient id="linear-gradient" x1="1.036" y1="0.002" x2="-0.366" y2="1.542" gradientUnits="objectBoundingBox">
      <stop offset="0" stop-color="#ffd5ff"/>
      <stop offset="0.06" stop-color="#e3d7ff"/>
      <stop offset="0.19" stop-color="#b2dbff"/>
      <stop offset="0.32" stop-color="#88deff"/>
      <stop offset="0.45" stop-color="#66e1ff"/>
      <stop offset="0.58" stop-color="#4be3ff"/>
      <stop offset="0.71" stop-color="#38e5ff"/>
      <stop offset="0.85" stop-color="#2de6ff"/>
      <stop offset="1" stop-color="#29e6ff"/>
    </linearGradient>
    <linearGradient id="linear-gradient-2" x1="1.447" y1="-0.148" x2="-1.063" y2="1.676" gradientUnits="objectBoundingBox">
      <stop offset="0" stop-color="#ffbdff"/>
      <stop offset="0.1" stop-color="#f5bfff"/>
      <stop offset="0.26" stop-color="#dbc4ff"/>
      <stop offset="0.343" stop-color="#cac7ff"/>
      <stop offset="0.47" stop-color="#b0ccff"/>
      <stop offset="0.72" stop-color="#75d8ff"/>
      <stop offset="0.798" stop-color="#2ae6ff"/>
      <stop offset="1" stop-color="#29e6ff"/>
    </linearGradient>
    <linearGradient id="linear-gradient-3" x1="0.617" y1="-0.197" x2="0.048" y2="3.634" gradientUnits="objectBoundingBox">
      <stop offset="0" stop-color="#ffd080"/>
      <stop offset="0.06" stop-color="#e3d390"/>
      <stop offset="0.19" stop-color="#b2d8ad"/>
      <stop offset="0.32" stop-color="#88dcc6"/>
      <stop offset="0.45" stop-color="#66e0db"/>
      <stop offset="0.58" stop-color="#4be2eb"/>
      <stop offset="0.71" stop-color="#38e4f6"/>
      <stop offset="0.85" stop-color="#2de6fd"/>
      <stop offset="1" stop-color="#29e6ff"/>
    </linearGradient>
    <linearGradient id="linear-gradient-4" x1="0.002" y1="0.501" x2="1.001" y2="0.501" gradientUnits="objectBoundingBox">
      <stop offset="0" stop-color="#ffd5ff"/>
      <stop offset="0.12" stop-color="#ffbce2"/>
      <stop offset="0.29" stop-color="#ff9ec0"/>
      <stop offset="0.46" stop-color="#ff87a5"/>
      <stop offset="0.63" stop-color="#ff7792"/>
      <stop offset="0.81" stop-color="#ff6d87"/>
      <stop offset="1" stop-color="#ff6a83"/>
    </linearGradient>
    <linearGradient id="linear-gradient-5" x1="1.048" y1="0.062" x2="-1.772" y2="2.669" gradientUnits="objectBoundingBox">
      <stop offset="0" stop-color="#ffd5ff"/>
      <stop offset="0.02" stop-color="#fdd1fb"/>
      <stop offset="0.21" stop-color="#edafdb"/>
      <stop offset="0.4" stop-color="#e094c3"/>
      <stop offset="0.59" stop-color="#d781b1"/>
      <stop offset="0.79" stop-color="#d276a6"/>
      <stop offset="1" stop-color="#d072a3"/>
    </linearGradient>
    <linearGradient id="linear-gradient-6" x1="0.889" y1="0.808" x2="-0.776" y2="-0.217" xlink:href="#linear-gradient-4"/>
    <linearGradient id="linear-gradient-7" x1="1.295" y1="0.526" x2="-1.067" y2="0.451" xlink:href="#linear-gradient-5"/>
    <linearGradient id="linear-gradient-8" x1="-0.22" y1="-0.011" x2="0.831" y2="0.636" xlink:href="#linear-gradient-5"/>
    <linearGradient id="linear-gradient-9" x1="0.221" y1="-0.122" x2="0.622" y2="0.702" xlink:href="#linear-gradient-5"/>
    <linearGradient id="linear-gradient-10" x1="-0.002" y1="0.5" x2="1" y2="0.5" xlink:href="#linear-gradient-5"/>
    <linearGradient id="linear-gradient-11" x1="0.812" y1="0.211" x2="-0.281" y2="2.279" xlink:href="#linear-gradient"/>
    <linearGradient id="linear-gradient-12" x1="0.07" y1="0.85" x2="1.629" y2="-0.424" xlink:href="#linear-gradient"/>
    <linearGradient id="linear-gradient-13" x1="0" y1="0.5" x2="1" y2="0.5" xlink:href="#linear-gradient"/>
    <linearGradient id="linear-gradient-14" x1="0" y1="0.5" x2="1" y2="0.5" xlink:href="#linear-gradient"/>
    <linearGradient id="linear-gradient-15" x1="0.627" y1="-0.033" x2="-0.384" y2="4.016" xlink:href="#linear-gradient-3"/>
    <linearGradient id="linear-gradient-16" x1="0.086" y1="0.029" x2="1.011" y2="1.181" xlink:href="#linear-gradient"/>
    <linearGradient id="linear-gradient-17" x1="0.909" y1="-0.049" x2="-0.055" y2="1.142" xlink:href="#linear-gradient"/>
    <linearGradient id="linear-gradient-18" x1="1.039" y1="0.55" x2="-0.625" y2="0.347" xlink:href="#linear-gradient"/>
    <linearGradient id="linear-gradient-19" x1="-0.467" y1="0.098" x2="0.957" y2="1.041" xlink:href="#linear-gradient"/>
    <linearGradient id="linear-gradient-20" x1="0" y1="0.5" x2="1" y2="0.5" xlink:href="#linear-gradient"/>
    <linearGradient id="linear-gradient-21" x1="1.051" y1="-0.361" x2="0.122" y2="1.09" xlink:href="#linear-gradient"/>
  </defs>
  <g id="Group_227" data-name="Group 227" transform="translate(-983.648 -318.433)">
    <path id="back_of_spacemen" data-name="back of spacemen" d="M207.149,0c114.405,0,477.44,76.094,383.005,213.073S345.337,429.553,207.149,414.3,0,321.554,0,207.149,92.744,0,207.149,0Z" transform="translate(1595.962 913.765) rotate(180)" fill="#f0f7ff"/>
    <g id="spaceman" transform="translate(983.648 318.433)">
      <g id="Layer_1" data-name="Layer 1" transform="translate(0 0)">
        <path id="Path_2129" data-name="Path 2129" d="M986.263,365.363c-43.351,58.314-120.038,110.508-166.33,125.219-37.156,11.8-96.1,8.571-73.209-.157,5.63-2.145,16.209-4.622,33.289-7.291,86.5-13.52,132.006-128.085,132.006-128.085l36.366,5.051Z" transform="translate(-236.748 -113.324)" fill="#449fd9" opacity="0.09"/>
        <path id="Path_2130" data-name="Path 2130" d="M950.778,360.1c-27.8,44.488-86.123,123.782-154.764,135.648-23.895,4.132-38.47,1.287-46.884-5.323,5.63-2.145,16.209-4.622,33.289-7.291,86.5-13.52,132.006-128.085,132.006-128.085Z" transform="translate(-239.154 -113.324)" opacity="0.19" fill="url(#linear-gradient)"/>
        <path id="Path_2131" data-name="Path 2131" d="M1095.837,311.6l-1.205-1.028-1.13,1.2-29.994,12.519a1.539,1.539,0,0,0-.817.824l-14.044,34.276-1.477,1.566,1.259,1.035h0a1.491,1.491,0,0,0,1.559.511l34.12-9.129a1.491,1.491,0,0,0,1.062-1.042l11.212-39.1a1.491,1.491,0,0,0-.552-1.627Z" transform="translate(-334.301 -99.124)" fill="#46a0dc"/>
        <path id="Path_2132" data-name="Path 2132" d="M988.915,335.846l23.282-32.493a2.784,2.784,0,0,1,3.71-.763l27.319,16.488a2.791,2.791,0,0,1,1.11,3.513l-15.658,35.645a2.791,2.791,0,0,1-3.928,1.307L989.813,339.91a2.8,2.8,0,0,1-.9-4.064Z" transform="translate(-315.536 -96.448)" fill="#5abff0"/>
        <path id="Path_2133" data-name="Path 2133" d="M1027.663,358.562a.81.81,0,0,1-1.007.184l-34.93-19.64a.831.831,0,0,1-.4-.524.811.811,0,0,1,.136-.647l23.275-32.493.041-.054a.8.8,0,0,1,1.028-.163l27.319,16.488a.817.817,0,0,1,.32,1.014l-15.657,35.638A.811.811,0,0,1,1027.663,358.562Z" transform="translate(-316.469 -97.381)" fill="url(#linear-gradient-2)"/>
        <path id="Path_2134" data-name="Path 2134" d="M1048.4,361.118l34.12-9.129a1.511,1.511,0,0,0,1.068-1.042l11.213-39.1a1.512,1.512,0,0,0-2.042-1.811l-30.845,12.873a1.539,1.539,0,0,0-.817.824l-14.48,35.352a1.511,1.511,0,0,0,1.784,2.035Z" transform="translate(-334.088 -98.915)" fill="#5abff0"/>
        <path id="Path_2135" data-name="Path 2135" d="M1049.83,362.606l14.044-34.276,11.539-4.82-12.479,35.59Z" transform="translate(-335.15 -103.255)" fill="#449fd9"/>
        <path id="Path_2136" data-name="Path 2136" d="M1077.31,348.778l5.569-16a.762.762,0,0,1,.422-.449l14.051-6.011a.756.756,0,0,1,1.021.933l-5.6,16.964a.748.748,0,0,1-.463.477l-14.024,5.051a.762.762,0,0,1-.98-.967Z" transform="translate(-343.909 -104.132)" fill="#46a0dc"/>
        <path id="Path_2137" data-name="Path 2137" d="M930.461,196.683s.164-2.042-1.212-2.335-3.962-.558-4.343.143c-.279.5-1.852,8.319-1.491,12.669.143,1.688,1.736,2.083,2.042,2.478C926.71,211.033,929.548,206.772,930.461,196.683Z" transform="translate(-294.776 -61.925)" fill="#dedede"/>
        <path id="Path_2138" data-name="Path 2138" d="M921.906,207.634c.756,2.628,1.5,3.077,2.423,3.036s1.437-.32,1.654-.973-2.042-.681-2.253-1.293a40.191,40.191,0,0,1,.218-9.388c.456-2.519.681-4.268.762-4.765a.143.143,0,0,0-.13-.163,5.106,5.106,0,0,0-1.062,0,2.423,2.423,0,0,0-.838.231C921.94,194.747,921.151,205.027,921.906,207.634Z" transform="translate(-294.213 -61.93)" fill="#807d7f"/>
        <path id="Path_2139" data-name="Path 2139" d="M921.906,207.65c.756,2.628,1.5,3.077,2.423,3.036-1.858-1.6-2.137-3.4-1.906-8.68a39.629,39.629,0,0,1,1.1-7.9,2.424,2.424,0,0,0-.837.231C921.94,194.764,921.151,205.043,921.906,207.65Z" transform="translate(-294.213 -61.946)" fill="#303030"/>
        <path id="Path_2140" data-name="Path 2140" d="M960.918,197.352a4.629,4.629,0,0,1-4.084,1.913c-6.188-.347-26.352-1.668-29.4-4.432-3.615-3.268,27.278-5.276,28.279-5.371C958.917,189.142,963.662,193.39,960.918,197.352Z" transform="translate(-295.981 -60.456)" fill="#dedede"/>
        <path id="Path_2141" data-name="Path 2141" d="M1026.986,211.994s-2.349-.238-2.723,1.362-.742,4.534.055,4.99c.579.327,9.531,2.335,14.507,2.042,1.933-.123,2.43-1.94,2.893-2.321C1043.392,216.664,1038.539,213.3,1026.986,211.994Z" transform="translate(-326.854 -67.651)" fill="#ededed"/>
        <path id="Path_2142" data-name="Path 2142" d="M1039.379,223.694c3.036-.8,3.574-1.654,3.554-2.723s-.34-1.654-1.083-1.92-.81,2.308-1.538,2.553a45.1,45.1,0,0,1-10.77-.483c-2.88-.585-4.874-.905-5.446-.994a.164.164,0,0,0-.191.15,5.777,5.777,0,0,0,0,1.212,2.63,2.63,0,0,0,.245.967C1024.572,223.333,1036.349,224.5,1039.379,223.694Z" transform="translate(-326.863 -69.902)" fill="#807d7f"/>
        <path id="Path_2143" data-name="Path 2143" d="M1039.384,224.6c3.036-.8,3.574-1.654,3.554-2.723-1.886,2.1-3.949,2.369-10.021,1.974a45.1,45.1,0,0,1-9.027-1.457,2.623,2.623,0,0,0,.245.967C1024.578,224.242,1036.355,225.406,1039.384,224.6Z" transform="translate(-326.869 -70.811)" fill="#303030"/>
        <path id="Path_2144" data-name="Path 2144" d="M1033.181,168.1c-.545,7.087-1.116,33.235-5.807,33.63-1.307.116-2.212-1.777-2.832-4.7-.94-4.486-1.219-11.4-1.266-17.312s.136-10.947.1-11.382c-.265-3.676,3.234-8.21,7.713-4.956A5.29,5.29,0,0,1,1033.181,168.1Z" transform="translate(-326.67 -51.778)" fill="#ededed"/>
        <path id="Path_2145" data-name="Path 2145" d="M845.61,47.737c4.97,4.391-31.785-32.765-80.152-23.391-47.476,9.211-43.623,74.686-11.13,84.373s60.479,16.454,64.386,43.3-21.839,71.82,23.03,38.122" transform="translate(-232.996 -7.264)" fill="none" stroke="#ededed" stroke-miterlimit="10" stroke-width="10"/>
        <rect id="Rectangle_272" data-name="Rectangle 272" width="38.817" height="57.504" rx="6.22" transform="translate(605.15 44.663) rotate(-29.1)" fill="#807d7f"/>
        <rect id="Rectangle_273" data-name="Rectangle 273" width="49.648" height="73.549" rx="7.96" transform="translate(602.913 51.775) rotate(-29.1)" fill="#ededed"/>
        <rect id="Rectangle_274" data-name="Rectangle 274" width="38.817" height="8.952" transform="translate(606.989 47.956) rotate(-29.1)" fill="#807d7f"/>
        <path id="Path_2146" data-name="Path 2146" d="M912.48,96.758s20.756,37.442,23.112,38.8c0,0,18.769-10.211,20.178-12.7S936.027,95.09,936.027,95.09,923.42,95.709,912.48,96.758Z" transform="translate(-291.302 -30.335)" fill="#dedede"/>
        <path id="Path_2147" data-name="Path 2147" d="M1017.767,155.424a11.145,11.145,0,0,1-1.825-1c-5.126-3.4-14.738-10.953-18.088-14.555a8.638,8.638,0,0,1-.926-1.13c-1.362-2.042-2.825-9.054-2.042-13.942a6.548,6.548,0,0,1,2.042-4.336l.054.048a8.932,8.932,0,0,1,.817.681c.585.49,1.477,1.28,2.723,2.492,2.927,2.8,7.829,7.876,15.412,16.7C1028.707,155.213,1023.186,157.82,1017.767,155.424Z" transform="translate(-317.54 -38.434)" fill="#dedede"/>
        <path id="Path_2148" data-name="Path 2148" d="M1018.285,155.753c-1.362-2.464-3.908-5.535-8.571-9.047-7.529-5.678-12.254-16.263-12.254-16.263-2.328-2.464-.735-6.433.871-8.952,1.94,1.641,7.3,6.576,18.142,19.191C1029.224,155.542,1023.7,158.149,1018.285,155.753Z" transform="translate(-318.057 -38.762)" fill="#ededed"/>
        <path id="Path_2149" data-name="Path 2149" d="M1000.531,123.675c-1.109,5.072-2.4,14.3-2.675,16.216a8.651,8.651,0,0,1-.926-1.13c-1.362-2.042-2.825-9.054-2.042-13.942.967-1.906,2.09-3.159,2.042-3.71a1.882,1.882,0,0,1,.054-.579,8.954,8.954,0,0,1,.817.681C998.386,121.674,999.278,122.463,1000.531,123.675Z" transform="translate(-317.54 -38.456)" fill="#807d7f"/>
        <path id="Path_2150" data-name="Path 2150" d="M979.654,146.763s-3.921,33.582-10.354,35.059a1.588,1.588,0,0,1-.5,0c-5.18-.606-8.9-28.51-9.7-38.919-.116-1.5-.17-2.641-.157-3.281v-.272h0v-.143a.975.975,0,0,1,0-.136c.409-1.995,3.635-4.929,8.476-4.391a12.048,12.048,0,0,1,1.362.245,12.729,12.729,0,0,1,1.743.545,17.585,17.585,0,0,1,3.792,2.09c4.248,3.016,5.133,6.243,5.276,7.958h0A5.324,5.324,0,0,1,979.654,146.763Z" transform="translate(-306.133 -42.952)" fill="#ededed"/>
        <path id="Path_2151" data-name="Path 2151" d="M968.795,181.861c-6.059-.681-10.109-38.688-9.85-42.473h0v-.143a.922.922,0,0,1,0-.136c.483-2.042,6.808-3.533,9.871-4.146,1.014-.2,1.681-.313,1.681-.313s0,.306.062.858C971.014,140.79,972.975,169.11,968.795,181.861Z" transform="translate(-306.132 -42.964)" fill="#dedede"/>
        <path id="Path_2152" data-name="Path 2152" d="M979.668,145.584c-3.649-4.9-11.164-6.243-13.724-5.589a43.123,43.123,0,0,0-6.849,2.989c-.116-1.5-.17-2.641-.156-3.281,2.212-2.287,5.616-4.52,7.229-4.765.408-.068.844-.129,1.294-.177a12.038,12.038,0,0,1,1.361.245,12.734,12.734,0,0,1,1.743.545,17.58,17.58,0,0,1,3.792,2.09C978.64,140.642,979.525,143.869,979.668,145.584Z" transform="translate(-306.133 -42.999)" fill="#807d7f"/>
        <path id="Path_2153" data-name="Path 2153" d="M957.663,133.711s3.166-3.819,9.258-2.042,8.489,8.217,11.2,7.652,4.6-.429,4.506-5.3c-.054-3.288.538-11.233.681-14.3.136-2.852-.953-7.761-3.805-6.692-3.683,1.362-.722,9.2-25.433,12.254,0,0-9.388-2.131-9.279.129s6.808,11.028,8.714,10.77S956.308,135.747,957.663,133.711Z" transform="translate(-301.616 -36.014)" fill="#ededed"/>
        <path id="Path_2154" data-name="Path 2154" d="M1000.156,58.51c-2.267,5.2-9.306,9.531-18.653,8.455l-.293-.041C964.566,64.882,957,53.833,962.618,46.651c0,0,20.089-6.617,32.574,0C1000.755,49.6,1001.994,54.337,1000.156,58.51Z" transform="translate(-306.722 -13.932)" fill="#ededed"/>
        <path id="Path_2155" data-name="Path 2155" d="M1008.934,65.19c-2.267,5.2-9.306,9.531-18.653,8.455l-.293-.041a10.32,10.32,0,0,1-.347-1.089c-2.124-7.944-1.13-7.332-1.13-7.332s9.932,2.723,16.338,0C1006.81,64.366,1008.09,64.543,1008.934,65.19Z" transform="translate(-315.5 -20.612)" fill="#dedede"/>
        <path id="Path_2156" data-name="Path 2156" d="M1004.407,38.514s4.765-17.7,8.087-19.061,14.888-2.165,16.243,4.936-7.366,30.226-18.5,32.254S1004.407,38.514,1004.407,38.514Z" transform="translate(-320.245 -5.897)" fill="#ededed"/>
        <path id="Path_2157" data-name="Path 2157" d="M970.588,90.251a5.956,5.956,0,0,1-.9,1.893,21.217,21.217,0,0,0-1.511,2.5c-1.5,3.043-9.919,9.251-24.106,10.014-.47,0-.946.048-1.423.061h-2.73l-.4-.034-.374-.041-.32-.048-.422-.068c-.313-.054-.633-.116-.946-.191l-.681-.163-.681-.211-.613-.2c-.647-.231-1.28-.5-1.9-.79l-.218-.109c-.136-.061-.279-.136-.415-.211l-.606-.32a19.218,19.218,0,0,1-1.79-1.1l-.579-.4-.422-.306-.327-.245-.762-.6-.524-.436-.62-.538-.612-.551c-.8-.749-1.573-1.539-2.3-2.342l-.4-.442c-.225-.259-.449-.511-.681-.776s-.552-.681-.81-.973-.613-.762-.9-1.144c-.136-.177-.272-.347-.4-.531-.266-.354-.517-.681-.769-1.048a64.03,64.03,0,0,1-5.773-9.9C904.895,68.058,925.5,52.108,940.4,47.444S965.333,59.48,965.333,59.48s2.975,15.821,4.6,26.3C970.18,87.425,970.4,88.944,970.588,90.251Z" transform="translate(-291.192 -14.862)" fill="#dedede"/>
        <path id="Path_2158" data-name="Path 2158" d="M950.57,30.9a7.371,7.371,0,0,1-.361,1.756c-.32.926-.551,2.893-1.171,3.608-1.872,2.124-5.8,3.649-8.339,4.4-1.838.545-3.329.606-4.125.824a14.244,14.244,0,0,1-2.179.313c-4.854.442-15.086.436-16.209-1.532-.408-.681-1.157-1.947-2-3.4a53.008,53.008,0,0,1-2.471-4.82,17.1,17.1,0,0,1-1.845-6.746s-1.13-13.615,8.006-18.6,18.735-3.52,23.7.735c3,2.587,5.133,8,6.236,13.445.1.531.2,1.069.293,1.593a37.079,37.079,0,0,1,.47,8.428Z" transform="translate(-291.093 -1.111)" fill="#807d7f"/>
        <path id="Path_2159" data-name="Path 2159" d="M956.534,67.12s-1.137.436-2.417,1.035c-.613.293-1.259.626-1.824.967a4.288,4.288,0,0,0-1.559,1.321s-3.485-3.458-3.71-3.874c-.1-.184.374-.831,1.212-1.518a9.9,9.9,0,0,1,1.675-1.1,7.747,7.747,0,0,1,2.621-.844Z" transform="translate(-302.325 -20.125)" fill="#fff"/>
        <path id="Path_2160" data-name="Path 2160" d="M952.253,70a4.289,4.289,0,0,0-1.559,1.321s-3.485-3.458-3.71-3.874c-.1-.184.375-.831,1.212-1.518Z" transform="translate(-302.312 -21.025)" fill="#1cab80"/>
        <path id="Path_2161" data-name="Path 2161" d="M957.894,67.12s-1.137.436-2.417,1.035l-4.207-4.2a7.746,7.746,0,0,1,2.621-.844Z" transform="translate(-303.685 -20.125)" fill="#1cab80"/>
        <path id="Path_2162" data-name="Path 2162" d="M950.156,30.127s.375-.184,0,.851c-1.47,4.085-5.235,14.3-14.875,19.02-4.854.442-15.086.436-16.209-1.532-.408-.681-1.157-1.947-2-3.4a53.008,53.008,0,0,1-2.471-4.82c7.563-3.308,24.623-10.075,34.9-10.994C949.781,29.187,949.884,30.14,950.156,30.127Z" transform="translate(-291.979 -9.314)" fill="#303030"/>
        <path id="Path_2163" data-name="Path 2163" d="M950.57,30.877a7.371,7.371,0,0,1-.361,1.756,18.526,18.526,0,0,1-3.676,3.1,27.911,27.911,0,0,1-6.576,3.063l-.864.279c-9.694,2.948-18.381-.041-22.908-2.267-1.947-3.465-4.411-8.353-4.316-11.573,0,0-1.13-13.615,8.006-18.6A23.36,23.36,0,0,1,921.992,5.6a24.507,24.507,0,0,1,9.231-2.1A18.339,18.339,0,0,1,943.572,7.4C948.535,11.7,951.128,23.661,950.57,30.877Z" transform="translate(-291.093 -1.092)" fill="#dedede"/>
        <path id="Path_2164" data-name="Path 2164" d="M951.3,35.737a27.914,27.914,0,0,1-6.576,3.063c1.048-10.259-3.4-23.289-8.727-29.531a10.941,10.941,0,0,0-9.238-3.656,24.509,24.509,0,0,1,9.231-2.1,25.826,25.826,0,0,1,5.31,3.3C949.633,13.429,951.567,28.215,951.3,35.737Z" transform="translate(-295.861 -1.098)" fill="#fff"/>
        <path id="Path_2165" data-name="Path 2165" d="M926,25.139s1.055-10.307,5.262-13.316a20.946,20.946,0,0,1,11.512-3.69c3.234-.231,6.372,2.376,8.081,5.351s3.622,12.934,2.723,16.032a9.673,9.673,0,0,1-6.63,6.848c-3.54.987-11.137,1.722-14.071,0A13.424,13.424,0,0,1,926,25.139Z" transform="translate(-295.618 -2.57)" fill="#ed5b9c"/>
        <path id="Path_2166" data-name="Path 2166" d="M954.258,21.7c.286,1.967.476,10.5-4.718,12.873S930.7,41,926.64,26.674c0,0,1.239-15.229,13.765-16.474a12.58,12.58,0,0,1,7.686,1.362C953.435,14.536,954.115,20.928,954.258,21.7Z" transform="translate(-295.822 -3.206)" fill="url(#linear-gradient-3)"/>
        <path id="Path_2167" data-name="Path 2167" d="M909.437,61.842s-14.058,5.793-18.455,15.61-4.513,20.423,5.078,18.163,20.756-8.237,23.69-12.3S934.373,55.069,909.437,61.842Z" transform="translate(-283.521 -19.341)" fill="#ededed"/>
        <path id="Path_2168" data-name="Path 2168" d="M893.677,131.626c-2.927.4-5.7-.354-7.25-2.968-3.662-6.181-4.6-27.707,1.361-36a7.38,7.38,0,0,1,4.221-3.118c6.433-1.579,6.467,5.412,6.467,5.412s5.868,20.464,6.175,27.081C904.821,126.309,899,130.9,893.677,131.626Z" transform="translate(-282.05 -28.489)" fill="#ededed" stroke="#fff" stroke-miterlimit="10" stroke-width="1"/>
        <path id="Path_2169" data-name="Path 2169" d="M974.485,108.633a5.951,5.951,0,0,1-.9,1.893,21.248,21.248,0,0,0-1.511,2.5c-1.5,3.043-9.919,9.251-24.106,10.014-.47,0-.946.048-1.423.061h-2.73l-.4-.034-.374-.041-.32-.048-.422-.068c-.313-.054-.633-.116-.946-.191l-.681-.163-.681-.211-.613-.2a19.978,19.978,0,0,1-1.9-.79l-.218-.109c-.136-.061-.279-.136-.415-.211l-.606-.32a19.259,19.259,0,0,1-1.791-1.1l-.578-.4-.422-.306-.327-.245-.762-.6-.524-.436-.619-.538-.613-.551c-.8-.749-1.573-1.539-2.3-2.342l-.4-.442c-.224-.259-.449-.511-.681-.776s-.551-.681-.81-.973-.613-.762-.9-1.144c-.136-.177-.272-.347-.4-.531-.266-.354-.517-.681-.769-1.048,6.658,4.323,5.4,8.5,18.38,11.205,3.628.756,9.483-5.575,12.717-6.808a87.718,87.718,0,0,0,18.38-9.531,41.144,41.144,0,0,1,.681,4.479Z" transform="translate(-295.088 -33.224)" fill="#807d7f"/>
        <path id="Path_2170" data-name="Path 2170" d="M946.178,13.495c-3.6-1.5-8.067,1.43-9.265,7.448s-5.2,4.895-7.155,3.914-1.055,2.178-3.118,1.8a24.58,24.58,0,0,1,1.062-4.929c1.47-4.561,4.895-10.77,12.7-11.573a16.3,16.3,0,0,1,3.363,0,11.07,11.07,0,0,1,4.323,1.362,7.614,7.614,0,0,1,1.225,1.579C950.112,14.434,949.765,15.006,946.178,13.495Z" transform="translate(-295.822 -3.193)" fill="#ffd080"/>
        <path id="Path_2171" data-name="Path 2171" d="M944.266,10.193a24.8,24.8,0,0,1-5,1.7c-5.358,1.362-4.452,9.646-6.317,10.545s-.109-4.765-1.409-4.391-1.8,3.778-3.336,3.7c1.47-4.561,4.895-10.77,12.7-11.573a16.3,16.3,0,0,1,3.363.027Z" transform="translate(-296.32 -3.199)" fill="#fff" opacity="0.55"/>
        <path id="Path_2172" data-name="Path 2172" d="M982.462,110.74a5.956,5.956,0,0,1-.9,1.893,21.2,21.2,0,0,0-1.511,2.5c-1.5,3.043-9.919,9.251-24.106,10.014-.47,0-.94.048-1.423.061h-2.73l-.4-.034-.374-.041-.32-.048-.422-.068c-.313-.054-.633-.116-.946-.191,3.676.293,8.115.368,10.171-.681C962.891,122.429,976.758,113.021,982.462,110.74Z" transform="translate(-303.066 -35.331)" fill="#303030"/>
        <path id="Path_2173" data-name="Path 2173" d="M1023.82,12.128s2.635-8.421,7.066-9.851,4.588-.524,5.044.681.075,1.961-1.13,2.185-1.362-.531-3.4,2.478-2.485,6.249-2.784,6.474S1024.95,15.743,1023.82,12.128Z" transform="translate(-326.846 -0.471)" fill="#ededed"/>
        <path id="Path_2174" data-name="Path 2174" d="M1029.227,13.216s5.072-6.637,9.476-6.467,4.248,1.021,4.261,2.233-.565,1.763-1.708,1.573-1.035-.905-3.812,1.11-4.227,4.765-4.568,4.847S1029.071,16.79,1029.227,13.216Z" transform="translate(-328.571 -2.131)" fill="#ededed"/>
        <path id="Path_2175" data-name="Path 2175" d="M1032.665,17.1s6.379-5.392,10.647-4.282,3.928,1.906,3.683,3.1-.933,1.6-2.042,1.171-.817-1.11-3.962.265-5.147,3.724-5.507,3.751A3.018,3.018,0,0,1,1032.665,17.1Z" transform="translate(-329.619 -4.022)" fill="#ededed"/>
        <path id="Path_2176" data-name="Path 2176" d="M893.677,133.2c-2.927.4-5.7-.354-7.25-2.968-3.662-6.181-4.6-27.707,1.361-36-1.144,6.631-2.274,16.1-.742,21.784A108.881,108.881,0,0,0,893.677,133.2Z" transform="translate(-282.05 -30.06)" fill="#dedede"/>
        <path id="Path_2177" data-name="Path 2177" d="M1032.865,21.652s6.3-3.308,9.646-1.593,2.914,2.308,2.492,3.254-1.075,1.157-1.886.6-.477-1.069-3.349-.511-4.97,2.151-5.269,2.11A2.6,2.6,0,0,1,1032.865,21.652Z" transform="translate(-329.608 -6.224)" fill="#ededed"/>
        <path id="Path_2178" data-name="Path 2178" d="M1021.782,14.23s1.613-1.688,5.024-.483c2.117.749,1.709,2.607,3.4,3.683s4.085,2.281,3.4,4.323,1.178,5.643-3.05,6.508c-4.01.817-4.833-2.539-4.833-2.539s-3.2-.2-4.234-.293C1014.75,24.877,1017.527,15.605,1021.782,14.23Z" transform="translate(-324.808 -4.228)" fill="#cacaca"/>
        <path id="Path_2179" data-name="Path 2179" d="M977.3,102.273s6.991,5.01,8.271,11.185c0,0,.742-11.736,1.614-14.82s.116,24.6-.034,26.815C987.151,125.453,982.637,107.787,977.3,102.273Z" transform="translate(-311.995 -31.391)" fill="#807d7f"/>
        <path id="Path_2180" data-name="Path 2180" d="M1018.648,20.78c-8.85,2.532-7.488-7.876-6.229-10.4.613-1.225,1.641-3.4,2.628-5.446a33.584,33.584,0,0,1,2.485-4.616,1.211,1.211,0,0,1,.728-.334,8.633,8.633,0,0,1,3.717.871l.143.068c.98.449-.45,3.533-1.2,5.446a2.719,2.719,0,0,0-.177.681c-.143,1.423,1.294,2.349,1.756,6.494C1023.046,18.248,1018.648,20.78,1018.648,20.78Z" transform="translate(-322.913 0.032)" fill="url(#linear-gradient-4)"/>
        <path id="Path_2181" data-name="Path 2181" d="M904.927,164.266c-3.1.558-10.211-2.26-10.552-2.723a2.991,2.991,0,0,0-.2-.293c-1.232-1.886-7.488-12.254-3.077-16.3a8.993,8.993,0,0,1,9.987-1.688l10.94,8.237a18.039,18.039,0,0,0,1.321,4.548,6.657,6.657,0,0,0,.442.756C915.044,158.623,908.025,163.7,904.927,164.266Z" transform="translate(-283.981 -45.452)" fill="#ededed"/>
        <path id="Path_2182" data-name="Path 2182" d="M1022.615,6.39a2.724,2.724,0,0,0-.177.681c-1.484-.231-5.146-.776-5.7-2.042a33.557,33.557,0,0,1,2.485-4.616,1.211,1.211,0,0,1,.728-.334,8.633,8.633,0,0,1,3.717.871l.143.068C1024.793,1.428,1023.364,4.511,1022.615,6.39Z" transform="translate(-324.586 0.004)" fill="url(#linear-gradient-5)"/>
        <path id="Path_2183" data-name="Path 2183" d="M924.412,149.785c-.606,1.947-2.042,3.833-3.159,3.833-.769,0-2.355-1.13-3.819-1.763a3.621,3.621,0,0,0-1.94-.381c-1.688.34-.681,2.26-3.833,0s-5.446-9.36-5.446-9.36-3.1-4.854,3.839-2.825a39.42,39.42,0,0,1,6.072,2.4C921.036,144.107,925.147,147.4,924.412,149.785Z" transform="translate(-289.081 -44.286)" fill="url(#linear-gradient-6)"/>
        <path id="Path_2184" data-name="Path 2184" d="M928.054,151.141c-.606,1.947-2.042,3.833-3.159,3.833-.769,0-2.355-1.13-3.819-1.763-.068-.443-.163-.939-.306-1.5-.62-2.539-3.662-2.09-3.833-2.825-.122-.538,1.743-4.03,2.8-5.841C924.677,145.464,928.789,148.758,928.054,151.141Z" transform="translate(-292.723 -45.642)" fill="url(#linear-gradient-7)"/>
        <path id="Path_2185" data-name="Path 2185" d="M907.1,170.631c-3.1.558-10.211-2.26-10.552-2.723a2.968,2.968,0,0,0-.2-.293,32.507,32.507,0,0,1,19.17-5.2,6.7,6.7,0,0,0,.443.756C917.215,164.987,910.2,170.066,907.1,170.631Z" transform="translate(-286.152 -51.816)" fill="#dedede"/>
        <path id="Path_2186" data-name="Path 2186" d="M967.38,47.947s18.939,9.939,16.229,50.553l.266,12.683s5.153-23.268,1.6-38.613S975,45.211,971.648,44.591,967.8,46.32,967.8,46.32Z" transform="translate(-308.828 -14.18)" fill="url(#linear-gradient-8)"/>
        <path id="Path_2187" data-name="Path 2187" d="M919.874,59.459s-.756-.136,2.982.415,29.953,6.168,43.044,50.1a9.437,9.437,0,0,1,.231,3.043c-.136,1.77-.109,2.941-.109,2.941s-11.4-32.574-30.464-42.166S913.87,63.067,911.923,62.734s2.757-1.362,4.677-2.471A5.133,5.133,0,0,1,919.874,59.459Z" transform="translate(-290.976 -18.952)" fill="url(#linear-gradient-9)"/>
        <path id="Path_2188" data-name="Path 2188" d="M911.216,63.78s-.225.068-.477,1A3.236,3.236,0,0,0,910.549,66l2.641-1.484S911.536,63.848,911.216,63.78Z" transform="translate(-290.685 -20.339)" fill="url(#linear-gradient-10)"/>
        <path id="Path_2189" data-name="Path 2189" d="M888.69,73.37l1.763-7.2s1.5-1.484,2.178-1.314,1.865,2.723,1.865,2.723a10.709,10.709,0,0,0-2.539,1.545c-.619.681-1.525,5.678-1.525,5.678Z" transform="translate(-283.707 -20.677)" fill="#ededed"/>
        <path id="Path_2190" data-name="Path 2190" d="M1024.546,205.212c-.939-4.486-1.219-11.4-1.266-17.312a9.186,9.186,0,0,0,1.681,3.513C1027.48,194.245,1026.493,202.843,1024.546,205.212Z" transform="translate(-326.674 -59.963)" fill="#dedede"/>
        <path id="Path_2191" data-name="Path 2191" d="M834.947,302.569a178.357,178.357,0,0,1-43.766-46.836c-2.628-4.153-2.233-10.892.8-14.7a274.469,274.469,0,0,1,56.142-52.493c4.01-2.771,10.756-2.723,14.725.191a178.189,178.189,0,0,1,43.793,46.836c2.634,4.153,2.233,10.892-.8,14.7a274.448,274.448,0,0,1-56.142,52.493C845.642,305.537,838.916,305.475,834.947,302.569Z" transform="translate(-252.021 -59.515)" fill="#449fd9"/>
        <path id="Path_2192" data-name="Path 2192" d="M838.844,300a209.205,209.205,0,0,1-38.878-41.581,12.854,12.854,0,0,1,.722-14.7,315.369,315.369,0,0,1,46.972-44.249,12.625,12.625,0,0,1,14.664.327,226.474,226.474,0,0,1,39.219,41.955,12.561,12.561,0,0,1-.681,14.643,315.385,315.385,0,0,1-47.306,43.882A12.822,12.822,0,0,1,838.844,300Z" transform="translate(-254.754 -62.956)" fill="url(#linear-gradient-11)"/>
        <path id="Path_2193" data-name="Path 2193" d="M928.313,226.1a2.723,2.723,0,1,1,1.189-2.743A2.723,2.723,0,0,1,928.313,226.1Z" transform="translate(-294.792 -70.561)" fill="#fff" opacity="0.58"/>
        <path id="Path_2194" data-name="Path 2194" d="M928.262,225.975a1.75,1.75,0,1,1,.6-1.711A1.75,1.75,0,0,1,928.262,225.975Z" transform="translate(-295.375 -71.128)" fill="#fff"/>
        <path id="Path_2195" data-name="Path 2195" d="M876.455,221.827l-1.654-1.593-3.07,2.662c-.98-.953-1.954-1.9-2.941-2.846q4.371-3.758,8.85-7.42,1.491,1.362,2.961,2.723l-3.281,2.771c.558.517,1.11,1.042,1.661,1.573q1.634-1.409,3.281-2.8c.973.919,1.94,1.831,2.907,2.723q-4.459,3.853-8.85,7.767-1.45-1.45-2.9-2.88Z" transform="translate(-277.354 -67.858)" fill="#fff"/>
        <path id="Path_2196" data-name="Path 2196" d="M889.753,224c2.076,2,4.132,4.037,6.127,6.093l-2.437,2.206c-1.1-1.116-2.192-2.226-3.3-3.329l-.756.681q1.293,1.3,2.573,2.6l-2.41,2.185c-.858-.878-1.715-1.756-2.58-2.621l-.79.681c1.11,1.123,2.212,2.247,3.308,3.4l-2.39,2.192q-3.063-3.186-6.188-6.317Q885.294,227.846,889.753,224Z" transform="translate(-281.223 -71.488)" fill="#fff"/>
        <path id="Path_2197" data-name="Path 2197" d="M890.81,241.8q4.4-4.03,8.85-8.033,1.362,1.43,2.771,2.88-3.145,2.9-6.3,5.82l2.614,2.784-2.491,2.287Q893.56,244.662,890.81,241.8Z" transform="translate(-284.384 -74.607)" fill="#fff"/>
        <path id="Path_2198" data-name="Path 2198" d="M899.5,250.929l8.714-8.169c.905.98,1.811,1.961,2.723,2.955l-6.2,5.916q1.287,1.409,2.56,2.832l-2.417,2.328Q902.2,253.815,899.5,250.929Z" transform="translate(-287.158 -77.477)" fill="#fff"/>
        <path id="Path_2199" data-name="Path 2199" d="M912.728,256.46c3.118-3.009,5.548-3.077,8.04-.157s2.26,5.528-.735,8.564-5.412,3.016-8.019.075S909.6,259.5,912.728,256.46Zm4.65,5.3c1.287-1.28,1.906-2.1,1.035-3.111s-1.681-.4-2.982.871-1.9,2.124-1.042,3.1S916.1,263.023,917.378,261.756Z" transform="translate(-290.576 -81.115)" fill="#fff"/>
        <path id="Path_2200" data-name="Path 2200" d="M859.917,227.33q1.457,1.43,2.907,2.88-2.628,2.723-5.228,5.446l.225.231q3.016-2.206,6.066-4.384,1.586,1.586,3.159,3.179-2.485,2.818-4.929,5.671l.225.231q2.955-2.464,5.923-4.908,1.45,1.47,2.886,2.954-4.847,3.526-9.646,7.066l-4.153-4.391q2.451-2.662,4.908-5.3l-.109-.136q-2.893,2.206-5.745,4.432l-4.085-4.282Q856.1,231.619,859.917,227.33Z" transform="translate(-272.096 -72.551)" fill="#fff"/>
        <path id="Path_2201" data-name="Path 2201" d="M872.655,249.114c3.179-2.92,5.739-2.941,8.462-.1s2.526,5.371-.681,8.339-5.7,2.989-8.428.089S869.476,252.034,872.655,249.114Zm4.949,5.208c1.361-1.246,1.995-2.042,1.055-3.029s-1.79-.408-3.131.837-1.954,2.042-1.048,3.036S876.27,255.56,877.6,254.321Z" transform="translate(-277.775 -78.8)" fill="#fff"/>
        <path id="Path_2202" data-name="Path 2202" d="M885.472,266.946l-.681-.735-2.246,2.11L879.72,265.3l8.734-8.169q1.709,1.818,3.4,3.656c2.342,2.532,2.866,4.336.272,6.808a4.1,4.1,0,0,1-3.4,1.416c-.715,1.219-1.436,2.43-2.151,3.642l-2.873-3.084,1.79-2.6Zm4.01-3.914-.62-.681-1.7,1.6.681.742c.395.436.912.334,1.457-.177S889.938,263.529,889.482,263.032Z" transform="translate(-280.844 -82.064)" fill="#fff"/>
        <path id="Path_2203" data-name="Path 2203" d="M890.74,277.169q4.343-4.084,8.639-8.169l2.757,3.05q-3.064,2.948-6.127,5.875,1.314,1.43,2.628,2.866l-2.41,2.287Q893.477,280.083,890.74,277.169Z" transform="translate(-284.362 -85.854)" fill="#fff"/>
        <path id="Path_2204" data-name="Path 2204" d="M899.45,286.519q4.275-4.037,8.5-8.169c1.1,1.246,2.213,2.505,3.309,3.758,2.723,3.111,2.532,5.6-.2,8.264s-5.242,3.009-8.067-.041Zm9.34-2.206-.483-.545q-1.831,1.77-3.663,3.526l.49.538c1.137,1.259,1.933.64,3.152-.538s1.559-1.79.5-2.982Z" transform="translate(-287.142 -88.839)" fill="#fff"/>
        <path id="Path_2205" data-name="Path 2205" d="M385.721,305.162s-3.785-28.04,0-33.711,97.907-29.838,124.647-26.407,13.064,116.893,12.56,121.931-52.915,35.917-95.817,28.006S385.721,305.162,385.721,305.162Z" transform="translate(-122.602 -78.1)" fill="#449fd9"/>
        <path id="Path_2206" data-name="Path 2206" d="M531.869,736.616q-6.413,1.2-12.812,1.995a204.922,204.922,0,0,1-22.7,1.545C399.046,741.333,312,672.577,293.392,573.635c-1.715-9.129,11.913-20.423,36.264-32a412.724,412.724,0,0,1,47.224-18.38c30.988-10.211,68.668-19.844,109.684-27.557,110.862-20.845,204.112-19.742,208.312,2.423C715.694,608.994,642.73,715.784,531.869,736.616Z" transform="translate(-93.618 -153.455)" fill="url(#linear-gradient-12)"/>
        <path id="Path_2207" data-name="Path 2207" d="M536.165,758.554a204.878,204.878,0,0,1-22.7,1.545C395.561,702.609,358.14,606.67,346.73,561.61a412.715,412.715,0,0,1,47.224-18.38l38.442,4.731C439.055,658.714,497.974,726.129,536.165,758.554Z" transform="translate(-110.692 -173.399)" fill="#fff" opacity="0.24"/>
        <path id="Path_2208" data-name="Path 2208" d="M681.833,516.876c-12.4,8.959-33.024,18.578-59.4,27.864-7.134,2.512-14.691,5-22.615,7.454-9.449,2.914-19.422,5.766-29.845,8.523-21.151,5.6-44.14,10.811-68.294,15.351-56.632,10.647-108.67,15.576-146.588,14.888a266.282,266.282,0,0,1-26.713-1.7c-14.194-1.722-24.657-4.7-30.314-8.938-2.614-1.954-4.2-4.173-4.67-6.665-.49-2.594.266-5.358,2.151-8.258,6.808-10.49,28.469-22.69,59.948-34.583,34.222-12.934,80.071-25.494,131.073-35.086,110.862-20.845,204.112-19.742,208.312,2.424C695.9,503.724,691.207,510.11,681.833,516.876Z" transform="translate(-93.617 -153.465)" fill="#5abff0" stroke="#fff" stroke-miterlimit="10" stroke-width="1"/>
        <path id="Path_2209" data-name="Path 2209" d="M443.949,550.467c-11.348,4.139-97.9,12.308-97.9,12.308s-47.088,13.67-17.523-16.338c2.852-2.893,6.426-6.195,10.817-9.953,0,0,23.826-6.624,29.273-26.706,2.723-10.15,5.97-12.036,9.183-10.838s6.283,5.3,8.972,7.55c4.867,4.051,8.169,7.747,11.13,6.862a3.635,3.635,0,0,0,1.048-.511c2.934-2.042,3.533-6.535,6.059-5.8a3.112,3.112,0,0,1,.905.436c3.322,2.185,7.556,13.949,17.237,13.173s14.7,3.765,18.21,7.168a21.18,21.18,0,0,0,10.164,5.9C455.522,534.864,455.3,546.322,443.949,550.467Z" transform="translate(-101.767 -159.159)" fill="#5abff0"/>
        <path id="Path_2210" data-name="Path 2210" d="M709.65,387.291s21.784-1.021,22.465-7.148-7.829-14.636,0-13.615,13.275,9.442,20.082,10.334,13.615,2.961,17.359-15.262,20.287-12.09,30.056-5.623,13.853,15.338,25.086,12.431,17.7,3.554,14.3,4.765,14.194,6.3,25.814,4.486,22.969,8.394-12.431,9.646S709.65,387.291,709.65,387.291Z" transform="translate(-226.55 -111.561)" opacity="0.602" fill="url(#linear-gradient-13)"/>
        <path id="Path_2211" data-name="Path 2211" d="M225.952,483.648s-191.293,15.889-196.739,5.9,14.3-42.466,54.461-30.314,28.143-10.082,43.46-12.805,33.466,0,40.274,16.794S225.952,483.648,225.952,483.648Z" transform="translate(-9.043 -142.205)" fill="url(#linear-gradient-14)"/>
        <path id="Path_2212" data-name="Path 2212" d="M536.615,352.732c0,1.47-4.35,14.677-10.5,26.822-.5.987-1.014,1.974-1.539,2.948s-1.042,1.893-1.573,2.812-1.151,1.947-1.75,2.873c-4.146,6.583-8.775,11.614-13.234,12.2l-1.416.191h0c-2.24.3-5.269.681-8.891,1.164-22.063,2.811-65.884,7.638-83.631,2.723L413,404.157c-20.559-5.929-29.845-15.657-34.31-18.748h0c-3.159-2.206-4.561-13.881-4.146-27.509,5.446-4.207,9.388-8.3,10.606-11.273,1.722-4.187,5.6-16.25,6.066-26.972l-.136-.245a86.919,86.919,0,0,0-8.217-4.085c3.84-9.7,8.237-17.8,10.838-22.955,4.575-9.068,27.367-15.957,27.367-15.957s71.071-16.713,74.938-16.658,27.006-3.69,36.08,2.212S536.615,350.009,536.615,352.732Z" transform="translate(-119.549 -82.544)" fill="#dedede"/>
        <path id="Path_2213" data-name="Path 2213" d="M472.665,514.369s-.572,4.316-1.362,10.552c-1.362,10.477-3.458,26.393-4.765,36.421-1.164,9.129-1.225,21.029-2.192,30.008-.735,6.76-1.988,11.859-4.616,12.88-6.127,2.383-16.563-14.752-20.423-46.516-2.927-24.106,3.683-49.062,7.046-59.7.633-2.008,1.151-3.506,1.464-4.391.218-.606.34-.926.34-.926l4.017,3.554,17.019,15.058Z" transform="translate(-140.013 -157.268)" fill="#ededed"/>
        <path id="Path_2214" data-name="Path 2214" d="M476.87,518.889s-.572,4.316-1.362,10.552c-1.362,10.477-3.458,26.393-4.765,36.421-1.164,9.129-1.225,21.029-2.192,30.008a4.635,4.635,0,0,1-.538,0c-2.042-.17-4.085-27.966-4.3-44.658s-4.983-21.206-8.755-26.42-3.172-17.931-3.172-17.931,12.934,5.262,21.628,8.972Z" transform="translate(-144.218 -161.788)" fill="#dedede"/>
        <path id="Path_2215" data-name="Path 2215" d="M547.727,588.026A15.656,15.656,0,0,1,546,585.847c-7.57-11.008-23.146-49.015-29.164-64.107-1.545-3.86-2.464-6.215-2.464-6.215a8.252,8.252,0,0,1-.592-3.343c.266-9.694,16.8-19.429,22.6-24a21.1,21.1,0,0,1,4.5-2.723,22.132,22.132,0,0,1,6.5-1.77l.422-.041h0c1.995-.163,3.4.068,3.547.429a22.725,22.725,0,0,1,.354,2.294c.2,1.5.47,3.669.8,6.358,2.451,20.3,7.951,70.152,8.5,82.372C561.683,590.429,555.9,596.195,547.727,588.026Z" transform="translate(-164.019 -154.36)" fill="#ededed"/>
        <path id="Path_2216" data-name="Path 2216" d="M476.3,514.622s-.572,4.316-1.362,10.552c-3.71-1.3-13.956-5.446-19.831-13.05a23.5,23.5,0,0,1-5.119-13.853,17.333,17.333,0,0,1,.443-4.765c.109-.055.47.082,1.021.361.953.49,2.485,1.423,4.357,2.628Z" transform="translate(-143.651 -157.521)" fill="#807d7f"/>
        <path id="Path_2217" data-name="Path 2217" d="M546,594.362c-7.57-11.008-23.146-49.015-29.164-64.107-1.545-3.86-2.464-6.215-2.464-6.215a8.252,8.252,0,0,1-.592-3.342c1.8-5.317,4.153-9.163,6.944-10.5,0,0,24.405,66.939,25.188,81.575C545.964,592.688,545.992,593.552,546,594.362Z" transform="translate(-164.019 -162.855)" fill="#dedede"/>
        <path id="Path_2218" data-name="Path 2218" d="M552.5,492.776a9.23,9.23,0,0,0-4.609-1.729c-6.059-.538-23.874,21.485-31.063,30.723-1.545-3.86-2.464-6.215-2.464-6.215-4.282-10.722,15.542-22.24,22.009-27.346a21.1,21.1,0,0,1,4.5-2.723l6.5-1.77.347-.1.075.055h0c.374.259,1.988,1.362,3.9,2.723C551.906,487.916,552.178,490.087,552.5,492.776Z" transform="translate(-164.017 -154.369)" fill="#807d7f"/>
        <path id="Path_2219" data-name="Path 2219" d="M531.11,486.549s-5.051-9.245-13.05-.395c-6.957,7.693-19.32,26.359-26.652,31.056a5.759,5.759,0,0,1-2.941,1.11c-6.467,0-21.1-9.36-27.06-12.254s-12.934-20.082-13.785-21.955,2.941-6.957,2.941-6.957l2.723-.252,69.642-6.46s1.811-3.635,6.576,0S531.11,486.549,531.11,486.549Z" transform="translate(-142.861 -149.647)" fill="#dedede"/>
        <path id="Path_2220" data-name="Path 2220" d="M491.408,521a5.759,5.759,0,0,1-2.941,1.11c-6.467,0-21.1-9.361-27.06-12.254s-12.934-20.082-13.785-21.954,2.941-6.957,2.941-6.957l2.723-.252c3.186,1.811,7.747,4.827,7.747,4.827S475.07,516.518,491.408,521Z" transform="translate(-142.861 -153.434)" fill="#ededed"/>
        <path id="Path_2221" data-name="Path 2221" d="M541.189,440.59q-.776,1.43-1.573,2.812c-.572.987-1.15,1.947-1.75,2.873a191.69,191.69,0,0,1-14.65,12.39h0a129.071,129.071,0,0,1-13.894,9.667c-8.169,4.473-41.186,8.469-49.355,7.618-6.385-.681-23.289-9.762-30.355-13.7-1.967-1.1-3.172-1.79-3.172-1.79s67.647.17,78.457-2.791C513.747,455.233,534.15,444.4,541.189,440.59Z" transform="translate(-136.138 -140.632)" fill="#303030"/>
        <path id="Path_2222" data-name="Path 2222" d="M520.342,253.69s-5.16,17.359-20.307,24.337a63.806,63.806,0,0,1-9.429,3.349c-15.419,4.3-35.29,5.5-38.681,3.969-4.139-1.872-9.109-4.936-11.968-8.169s1.7-7.148,1.7-7.148l64.577-27.271,9.912-4.187a30.331,30.331,0,0,0-.905,4.187h0c-.334,2.417-.374,5.249.912,6.651,0,0,2.042-.286,1.586,1.362,0,0,1.927.34,1.246,1.7C518.981,252.478,520.458,252.042,520.342,253.69Z" transform="translate(-140.153 -76.139)" fill="#807d7f"/>
        <path id="Path_2223" data-name="Path 2223" d="M515.257,244.48h0c-.245.865-6.808,23.37-24.63,38.592-15.419,4.3-35.29,5.5-38.681,3.969-4.139-1.872-9.109-4.935-11.968-8.169s1.7-7.148,1.7-7.148l64.577-27.271C510.3,243.84,513.452,243.765,515.257,244.48Z" transform="translate(-140.159 -77.863)" fill="#303030"/>
        <path id="Path_2224" data-name="Path 2224" d="M754.763,293.633a87.915,87.915,0,0,1-4.316,8.047c-8.625,14.521-59.458,42.207-121.175,20.872-14.1-4.874-22.86-10.388-27.986-16-17.3-18.952,6.883-38.987,6.883-38.987s69.662-26.72,115.954-15.365C762.585,261.637,761.257,279.521,754.763,293.633Z" transform="translate(-189.965 -79.594)" fill="#dedede"/>
        <path id="Path_2225" data-name="Path 2225" d="M754.769,293.633A294.993,294.993,0,0,1,719.6,289.44c-48.872-8.482-93.067,5.861-118.3,17.114-17.3-18.952,6.883-38.987,6.883-38.987s69.662-26.72,115.954-15.365C762.591,261.637,761.264,279.521,754.769,293.633Z" transform="translate(-189.972 -79.594)" fill="#ededed"/>
        <path id="Path_2226" data-name="Path 2226" d="M528.092,436.26c-.994,1.961-2.042,3.9-3.111,5.759-7.073,5.276-16.543,11.866-25.3,16.427a56.871,56.871,0,0,1-11.811,4.867c-17.7,4.473-52.078,6.174-77.607-2.675-25.127-8.714-29.477-18.2-29.606-18.489C381.572,442.434,445.815,464.722,528.092,436.26Z" transform="translate(-121.523 -139.25)" fill="#807d7f"/>
        <path id="Path_2227" data-name="Path 2227" d="M507.209,196.671c-9.013,40.587-34.623,45.7-56.428,47.217l-2.117.136a45.688,45.688,0,0,1-12.655-1.062c-18.38-4.085-35.4-19.5-33.357-46.292,2.464-32.976,2.914-39.007,15.623-53.691,0,0,11.5-12.553,36.244-13.1,2.042-.048,4.085,0,6.3.116a57.315,57.315,0,0,1,16.168,3.295C498.761,141.175,514.732,162.748,507.209,196.671Z" transform="translate(-128.491 -41.435)" fill="#dedede"/>
        <path id="Path_2228" data-name="Path 2228" d="M459.541,243.852l-2.117.136a45.687,45.687,0,0,1-12.655-1.042c-24.507-18.687-11.7-60.009-9.926-85.428,1.062-15.249,15.154-23.391,28.415-27.686,2.042-.048,4.085,0,6.3.116a57.312,57.312,0,0,1,16.168,3.295c-43.752,6.61-34.16,18.2-43.739,60.356C435.605,221.693,448.771,236.608,459.541,243.852Z" transform="translate(-137.25 -41.42)" fill="#fff"/>
        <path id="Path_2229" data-name="Path 2229" d="M367.074,339.136c-.436,10.763-4.343,22.935-6.072,27.142-3.4,8.326-27.911,25.4-48.681,29.361q-1.947.381-3.853.592c-21.444,2.383-2.042-39.484,10.552-53.44s29.273-21.662,29.273-21.662C363.82,317.107,367.557,327.278,367.074,339.136Z" transform="translate(-95.412 -102.21)" fill="#ededed"/>
        <path id="Path_2230" data-name="Path 2230" d="M408.792,153.822s8-7.148,11.4-8.169,40.784-4.452,53.95,1.743,18.605,29.341,18.149,39.784-4.534,26.093-12.934,33.357-42.656,14.521-55.141,12.7-20.974-12.172-21.492-16.522S408.792,153.822,408.792,153.822Z" transform="translate(-128.559 -45.88)" fill="#ed5b9c"/>
        <path id="Path_2231" data-name="Path 2231" d="M483.528,188.426A47.979,47.979,0,0,1,471.091,220.7c-12.669,6.733-29.586,9.435-35.672,10.388-3.846.6-13.363.565-21.464.395A48.15,48.15,0,0,1,389.523,174c2.2-7,9.449-13.261,14.357-18.476,8.441-4,25.917-10.572,63.821-2.764A47.973,47.973,0,0,1,483.528,188.426Z" transform="translate(-123.646 -47.582)" fill="url(#linear-gradient-15)"/>
        <ellipse id="Ellipse_103" data-name="Ellipse 103" cx="16.291" cy="16.291" rx="16.291" ry="16.291" transform="translate(351.536 206.142)" fill="#fff"/>
        <ellipse id="Ellipse_104" data-name="Ellipse 104" cx="12.165" cy="12.165" rx="12.165" ry="12.165" transform="translate(355.661 210.268)" fill="#ffd080"/>
        <circle id="Ellipse_105" data-name="Ellipse 105" cx="9.483" cy="9.483" r="9.483" transform="translate(358.344 212.95)" fill="#807d7f"/>
        <path id="Path_2232" data-name="Path 2232" d="M477.7,223.057a48.067,48.067,0,0,1-6.61,9.313c-12.669,6.733-29.586,9.435-35.672,10.388-3.846.6-13.363.565-21.464.395a48.15,48.15,0,0,1-24.432-57.483c-.728,7.631-.374,16.025,3.921,19.191,8.618,6.358,7.713-1.7,12.363,0s.34,6.127,4.425,7.6,16.114-.681,24.058,17.019,33.126,3.547,35.4-3.615C471.193,221.124,475.9,220.076,477.7,223.057Z" transform="translate(-123.646 -59.251)" fill="#ffd080"/>
        <path id="Path_2233" data-name="Path 2233" d="M373.387,345.5v.17c-.47,10.722-4.343,22.785-6.065,26.972-1.362,3.274-5.943,7.89-12.288,12.54-9.81,7.175-23.793,14.419-36.393,16.822,9.606-7.094,21.621-17.189,26.223-26.2,2.948-5.78,5.814-11.77,8.278-17.162,4.364-9.531,7.488-17.148,7.72-18.238s6.971,1.988,12.39,5.024Z" transform="translate(-101.724 -108.577)" fill="#dedede"/>
        <path id="Path_2234" data-name="Path 2234" d="M381.2,341.392a108.463,108.463,0,0,0-6.74,24.228,165.651,165.651,0,0,0-1.579,18.326c-.545.422-1.1.844-1.681,1.266-.769-8.047-1.362-17.291-1.893-26.55,4.364-9.531,7.488-17.148,7.72-18.238C377.132,339.922,378.841,340.4,381.2,341.392Z" transform="translate(-117.9 -108.591)" fill="#807d7f" opacity="0.33"/>
        <path id="Path_2235" data-name="Path 2235" d="M402.472,218.235s-7.727,11.164,6.767,27.36c0,0-11.375-8-12.826-19.313S402.472,218.235,402.472,218.235Z" transform="translate(-126.493 -69.507)" fill="#fff" opacity="0.53"/>
        <path id="Path_2236" data-name="Path 2236" d="M424.49,401.3s24.609,39.722,40.954,46.618c0,0,27.911-43.051,32.03-52.452s1.8,2.777,1.8,2.777l-34,65.2s-24.432-9.217-31.192-23.146S424.49,401.3,424.49,401.3Z" transform="translate(-135.516 -125.091)" fill="#807d7f"/>
        <ellipse id="Ellipse_106" data-name="Ellipse 106" cx="5.875" cy="14.691" rx="5.875" ry="14.691" transform="translate(271.4 156.83) rotate(-30)" fill="#fff" opacity="0.59"/>
        <path id="Path_2237" data-name="Path 2237" d="M447.65,155.511s28.932-.681,38.973,3.574c0,0,8.85,10.041,11.062,20.082,0,0-7.318-13.956-14.466-17.019S456.33,156.512,447.65,155.511Z" transform="translate(-142.909 -49.611)" fill="#fff"/>
        <path id="Path_2238" data-name="Path 2238" d="M527.661,697.4c-.871-.47-69.8-38.354-58.47-47.9s21.716,1.151,28.592,5.9,37.591,35.345,35.4,39.191S527.661,697.4,527.661,697.4Z" transform="translate(-149.384 -206.101)" fill="#ededed"/>
        <path id="Path_2239" data-name="Path 2239" d="M363.521,304.407a6.808,6.808,0,0,1,2.914-6.705c5.963-4.03,18.115-11.573,23.18-10.082,6.808,2.042-1.185,22.683,2.9,40.042s16.8,57.572,47.306,90.092c17.611,18.775,15.732,24.6,15.732,24.6s-32.745-19.742-50.1-41.526C389.172,380.4,367.312,327.982,363.521,304.407Z" transform="translate(-116.025 -91.736)" fill="url(#linear-gradient-16)"/>
        <path id="Path_2240" data-name="Path 2240" d="M535.517,257s2.042-3.132,7.318-3.472,23.656,9.531,25.188,11.389.511,12.778-3.914,24.691-70.391,141.918-70.391,141.918S483.677,424.716,483,418.95,532.794,333.311,535.517,257Z" transform="translate(-154.191 -80.911)" fill="url(#linear-gradient-17)"/>
        <path id="Path_2241" data-name="Path 2241" d="M479.231,664.251a4.077,4.077,0,0,1-.81.776c-5.957,4.425-20.423-9.36-25.188-13.956,0,0-3.615-7.488.681-7.815s4.7,1.859,9.891-.354c.579-.252,1.1-.456,1.573-.626,3.731-1.362,4.214-.422,5.575,1.361C472.362,645.618,483.132,659.063,479.231,664.251Z" transform="translate(-144.237 -204.811)" fill="#46a0dc"/>
        <path id="Path_2242" data-name="Path 2242" d="M643.987,657.256c-.987-.1-79.206-8.312-72.46-21.5s20.464-7.352,28.592-5.643,48.334,18.02,47.81,22.424S643.987,657.256,643.987,657.256Z" transform="translate(-182.324 -200.253)" fill="#ededed"/>
        <path id="Path_2243" data-name="Path 2243" d="M673.091,660.481s-1.484-5.289,1.967-6.74,10.123-3.506,11.484-1.865c.98,1.184,9.136,20.858,10.429,32.445.5,4.486-3.472,6.351-4.159,7.563C690.342,696.241,680.688,686.486,673.091,660.481Z" transform="translate(-214.778 -207.89)" fill="#ededed"/>
        <path id="Path_2244" data-name="Path 2244" d="M705.623,684.725c-.633,7.284-2.362,8.85-4.8,9.217s-3.928-.116-4.833-1.709,4.976-2.784,5.242-4.554-2.417-16.89-5.405-24.507c-2.5-6.358-4.03-10.817-4.466-12.111a.395.395,0,0,1,.272-.5,14.187,14.187,0,0,1,2.778-.5,6.323,6.323,0,0,1,2.315.184C698.883,650.9,706.249,677.434,705.623,684.725Z" transform="translate(-220.706 -207.49)" fill="#807d7f"/>
        <path id="Path_2245" data-name="Path 2245" d="M707.062,684.731c-.633,7.284-2.362,8.85-4.8,9.217,4.085-5.153,3.86-9.987.531-23.752a105.21,105.21,0,0,0-6.944-20.123,6.326,6.326,0,0,1,2.315.184C700.322,650.9,707.688,677.44,707.062,684.731Z" transform="translate(-222.145 -207.497)" fill="#303030"/>
        <path id="Path_2246" data-name="Path 2246" d="M485.584,664.26c-.9-6.985-10-17.7-13.874-21.954,3.731-1.362,4.214-.422,5.575,1.362C478.715,645.628,489.484,659.073,485.584,664.26Z" transform="translate(-150.59 -204.821)" fill="#1191d3"/>
        <path id="Path_2247" data-name="Path 2247" d="M459.94,658.229s9.857-1.007,12.669-3.179C472.609,655.05,464.453,656.037,459.94,658.229Z" transform="translate(-146.833 -209.097)" fill="#0d759c"/>
        <path id="Path_2248" data-name="Path 2248" d="M456.45,653.122s8.285-.844,10.647-2.662C467.1,650.46,460.228,651.284,456.45,653.122Z" transform="translate(-145.719 -207.631)" fill="#0d759c"/>
        <path id="Path_2249" data-name="Path 2249" d="M468,664.154s7.121-.728,9.156-2.294C477.143,661.86,471.247,662.568,468,664.154Z" transform="translate(-149.406 -211.271)" fill="#0d759c"/>
        <path id="Path_2250" data-name="Path 2250" d="M591.828,647.143a4.151,4.151,0,0,1-.619.953c-4.867,5.6-21.955-4.765-27.6-8.224,0,0-5.133-6.515-1.035-7.774s4.99.8,9.585-2.471c.511-.368.98-.681,1.4-.946,3.349-2.131,4.023-1.321,5.746.157C581.14,630.417,594.524,641.241,591.828,647.143Z" transform="translate(-179.092 -200.264)" fill="#46a0dc"/>
        <path id="Path_2251" data-name="Path 2251" d="M597.725,647.143c-2.376-6.63-13.561-15.113-18.265-18.462,3.349-2.131,4.023-1.321,5.746.157C587.037,630.417,600.42,641.241,597.725,647.143Z" transform="translate(-184.988 -200.264)" fill="#1191d3"/>
        <path id="Path_2252" data-name="Path 2252" d="M573.65,646.53s9.408-3.1,11.689-5.82C585.339,640.71,577.592,643.426,573.65,646.53Z" transform="translate(-183.134 -204.519)" fill="#0d759c"/>
        <path id="Path_2253" data-name="Path 2253" d="M569.1,642.5s7.9-2.6,9.823-4.888C578.923,637.61,572.436,639.918,569.1,642.5Z" transform="translate(-181.681 -203.529)" fill="#0d759c"/>
        <path id="Path_2254" data-name="Path 2254" d="M582.68,650.947s6.808-2.24,8.448-4.207C591.128,646.74,585.532,648.7,582.68,650.947Z" transform="translate(-186.016 -206.444)" fill="#0d759c"/>
        <path id="Path_2255" data-name="Path 2255" d="M553.211,711.226s.681-5.446,4.425-5.446,10.674.681,11.294,2.723c.443,1.47.347,22.765-2.955,33.949-1.28,4.33-5.664,4.507-6.767,5.364C555.253,750.86,550.148,738.116,553.211,711.226Z" transform="translate(-176.31 -225.292)" fill="#ededed"/>
        <path id="Path_2256" data-name="Path 2256" d="M570.121,744.969c-3.4,6.467-5.6,7.236-7.992,6.637s-3.574-1.627-3.792-3.451,5.664-.633,6.6-2.165,4.316-16.508,4.507-24.677c.163-6.808.477-11.532.579-12.894a.395.395,0,0,1,.443-.361,14.893,14.893,0,0,1,2.757.613,6.382,6.382,0,0,1,2.042,1.069C577.01,711.183,573.525,738.5,570.121,744.969Z" transform="translate(-178.243 -226.018)" fill="#807d7f"/>
        <path id="Path_2257" data-name="Path 2257" d="M571.9,745.271c-3.4,6.467-5.6,7.236-7.992,6.637,5.732-3.179,7.427-7.713,9.694-21.689A105.209,105.209,0,0,0,575,709a6.379,6.379,0,0,1,2.042,1.069C578.791,711.485,575.306,738.8,571.9,745.271Z" transform="translate(-180.024 -226.32)" fill="#303030"/>
        <path id="Path_2258" data-name="Path 2258" d="M789.423,78.3c-2.042.9-10.722,4.813-10.722,4.813s-10.041,11.743-15.487,13.275c-3.4.953-6.453,5.078-9.762,8.169a18.618,18.618,0,0,1-2.825,2.233.068.068,0,0,0-.034,0,7.89,7.89,0,0,1-3.513,1.273c-1.5.123-3.765.395-6.127.463-7.291.2-15.378-1.607-3.71-16.066,0,0,17.7-11.573,24.058-14.745S786.032,64.1,786.032,64.1a4.16,4.16,0,0,1,2.451.218c1.219.483,2.614,1.668,3.506,4.432C793.848,74.573,791.465,77.378,789.423,78.3Z" transform="translate(-233.482 -20.41)" fill="#ededed"/>
        <path id="Path_2259" data-name="Path 2259" d="M793.71,78.443c-2.042.9-10.722,4.813-10.722,4.813S772.947,95,767.5,96.531c-3.4.953-6.454,5.078-9.762,8.169-.933.756-1.886,1.518-2.825,2.233a.068.068,0,0,0-.034,0,7.889,7.889,0,0,1-3.513,1.273c-1.5.123-3.765.395-6.127.463-1.1-2.076-.463-5.133,5.085-7.611,0,0,24.167-14.466,26.72-16.338s4.085-8.339,9.7-9.19,2.362-8.85,4.214-10.279a3.941,3.941,0,0,1,1.811-.79c1.219.483,2.614,1.668,3.506,4.432C798.135,74.719,795.752,77.524,793.71,78.443Z" transform="translate(-237.769 -20.556)" fill="#dedede"/>
        <path id="Path_2260" data-name="Path 2260" d="M702.724,145.183s-12.71,67.974-6.808,82.113,49.015,59.975,86.225,34.106-19.967-114.368-19.967-114.368S718.15,94.765,702.724,145.183Z" transform="translate(-221.667 -39.323)" fill="#ededed" stroke="#fff" stroke-miterlimit="10" stroke-width="2"/>
        <path id="Path_2261" data-name="Path 2261" d="M813.065,143.849c-2.941,2.212-9.081,3.336-10.96,2.723,0,0-5.167,7.3-13.459,8.353-3.69.47-6.215-1.361-7.2-3.833-1.246-3.091-.061-7.162,4.3-8.9,0,0,13.84-3.451,16.808-4.234s7.175-2.607,8.55-3.023,4.214-1.831,4.765-.116a1.261,1.261,0,0,0,.068.252C816.394,137,815.884,141.738,813.065,143.849Z" transform="translate(-249.323 -42.754)" fill="#ededed"/>
        <path id="Path_2262" data-name="Path 2262" d="M813.284,144.329c-2.941,2.212-9.081,3.336-10.96,2.723,0,0-5.167,7.3-13.459,8.353-3.69.47-6.215-1.361-7.2-3.833,2.723.374,8.305.742,11.709-1.722a35.531,35.531,0,0,1,10.341-5.126c.912-.245,6.413.2,7.842-1.157s.606-6.563,2.832-7.672a2.24,2.24,0,0,1,1.763-.34C816.613,137.481,816.1,142.219,813.284,144.329Z" transform="translate(-249.542 -43.235)" fill="#dedede"/>
        <path id="Path_2263" data-name="Path 2263" d="M820.638,119.457c-2.723,3.315-9.36,6.29-11.655,6.127,0,0-3.833,9.694-12.934,13.186-4.044,1.552-7.413.163-9.211-2.355-2.26-3.152-2.042-8.087,2.4-11.26,0,0,14.718-7.74,17.863-9.442s7.407-4.942,8.85-5.786,4.262-3.24,5.364-1.45c.048.082.1.17.15.265C822.5,110.784,823.259,116.284,820.638,119.457Z" transform="translate(-250.742 -34.401)" fill="#ededed"/>
        <path id="Path_2264" data-name="Path 2264" d="M821.3,119.879c-2.723,3.315-9.36,6.29-11.655,6.127,0,0-3.833,9.694-12.934,13.186-4.044,1.552-7.413.163-9.211-2.355,3.22-.334,9.612-1.457,12.785-5.187a41.3,41.3,0,0,1,10.293-8.659c.967-.531,7.318-1.552,8.564-3.485s-1.13-7.6,1.082-9.469c.824-.681,1.443-.946,1.906-.871C823.158,111.207,823.921,116.707,821.3,119.879Z" transform="translate(-251.403 -34.824)" fill="#dedede"/>
        <path id="Path_2265" data-name="Path 2265" d="M815.156,90.8c-7.6,6.379-9.19,5.582-9.19,5.582s-5.106,6.923-10.211,8.285a70.067,70.067,0,0,1-8.169,6.91h0a46.231,46.231,0,0,1-6.665,4.085c-3.288,1.6-6.692,2.566-9.708,2.076a8.548,8.548,0,0,1-1.8-.483c-10.1-3.969-3.914-9.721-3.914-9.721a24.315,24.315,0,0,1,10.552-8.06c7.318-3.063,15.167-9.667,16.692-11.028s19.007-13.663,21.389-14.378c.681-.211,1.729.6,2.648,2C819.023,79.456,820.521,86.3,815.156,90.8Z" transform="translate(-243.782 -23.612)" fill="#ededed"/>
        <path id="Path_2266" data-name="Path 2266" d="M816.494,91.491c-7.6,6.379-9.19,5.582-9.19,5.582S802.2,104,797.092,105.358a70.067,70.067,0,0,1-8.169,6.91h0c-2.042,1.28-4.364,2.723-6.665,4.085-6.685,4.023-13.357,7.788-14.3,7.379-.742-.327,1.491-2.607,4.568-5.3,4.867-4.268,11.838-9.578,12.417-9.844.933-.429,20.334-13.615,21.784-15.909s4.507-1.879,7.311-4.513.871-10.055,1.654-11.478c.422-.8,1.436-.483,2.423.075C820.361,80.15,821.858,86.991,816.494,91.491Z" transform="translate(-245.12 -24.305)" fill="#dedede"/>
        <path id="Path_2267" data-name="Path 2267" d="M731.794,160.647s21.41,2.206,29.409-6.474c0,0,.681,5.194,5.957,3.363s10.892-9.66,12.594-17.319.681-17.359-8.339-21.274c-3.247-1.409-9.34-2.8-15.991-3.642-11.825-1.491-25.413-1.259-27.911,3.642C723.557,126.6,723.625,154.533,731.794,160.647Z" transform="translate(-231.437 -36.529)" fill="#dedede"/>
        <path id="Path_2268" data-name="Path 2268" d="M144.009,285.761s4.085-10.5,21.641-8.169c0,0,18.054,6.671,23.684,11.355s16.651,10.354,16.828,10.8-6.808,17.06-8.666,17.319-15.419,8.959-15.419,8.959-40.042-10.674-38.742-15.058S144.009,285.761,144.009,285.761Z" transform="translate(-45.75 -88.489)" fill="#cacaca"/>
        <path id="Path_2269" data-name="Path 2269" d="M722.552,149.907c-3.179,2.914-29.273-4.479-38.4-17.856a13.758,13.758,0,0,1,1.675-17.346c4.37-4.466,11.3-11.491,17.754-17.849,7.713-7.6,14.752-14.248,15.909-14.378,2.723-.306,11.233,11.893,3.744,20.116-.844.926-1.675,1.824-2.464,2.723-6.277,6.882-10.416,12.172-1.961,16.706C728.339,127.081,726.637,146.142,722.552,149.907Z" transform="translate(-217.668 -26.306)" fill="#449fd9"/>
        <path id="Path_2270" data-name="Path 2270" d="M733.446,102.576c-.844.926-1.675,1.824-2.464,2.723-.477.136-.973.259-1.5.368-9.176,1.92-14.6-6.808-15.657-8.8,7.713-7.6,14.752-14.248,15.909-14.378C732.425,82.153,740.935,94.407,733.446,102.576Z" transform="translate(-227.882 -26.309)" fill="url(#linear-gradient-18)"/>
        <path id="Path_2271" data-name="Path 2271" d="M270.819,387.2c-2.873.218-7.788-1.45-13.751-4.4-22.172-10.974-58.886-39.681-59.423-55.475-.327-9.578,5.643-19.415,14.643-25.957,9.83-7.141,23.275-10.348,36.08-4.976,24.507,10.293,36.761,61.867,36.761,61.867C288.457,369.749,284.339,386.182,270.819,387.2Z" transform="translate(-63.093 -93.74)" fill="#ededed" stroke="#fff" stroke-miterlimit="10" stroke-width="2"/>
        <path id="Path_2272" data-name="Path 2272" d="M257.127,386.392h0c-22.172-10.974-58.886-39.681-59.423-55.475-.327-9.578,5.643-19.415,14.643-25.957C215.023,321.809,225.5,370.912,257.127,386.392Z" transform="translate(-63.112 -97.334)" fill="#dedede"/>
        <path id="Path_2273" data-name="Path 2273" d="M210.679,307.176s8.285,6.944,3.635,13.173-5.187,10.45-12.519,9.415-12.444-5.909-9.946-12.492S206.043,305.249,210.679,307.176Z" transform="translate(-61.043 -97.915)" fill="#cacaca"/>
        <path id="Path_2274" data-name="Path 2274" d="M197.9,332.527c-1.3,3.274-15.338,12.744-21.253,11.28-2.648-.681-4.547-3.036-5.827-5.446a27.107,27.107,0,0,1-2.253-6.127c6-3.4,25.46-5.861,26.291-5.5a5,5,0,0,1,.769.436C196.917,328.027,198.939,329.919,197.9,332.527Z" transform="translate(-53.816 -104.273)" fill="#ededed"/>
        <path id="Path_2275" data-name="Path 2275" d="M199.33,277.8a22.019,22.019,0,0,1-15.269-16.073c-.858-4.833-7.931-6.338-7.931-6.338l10.143.123s4.847,1.361-5.29-11.709a19.947,19.947,0,0,1-4.377-12.485c0-8.938,5.6-17.019,8.319-20.954,3.969-5.7,21.042-1.709,15.6,6.808-4.67,7.291,2.669,26.168,7.141,33.357a11.826,11.826,0,0,0,1.947,2.532c3.622,3.063,12.1,17.659,11.341,20.545S208.834,280.4,199.33,277.8Z" transform="translate(-56.229 -66.283)" fill="#449fd9"/>
        <path id="Path_2276" data-name="Path 2276" d="M207.893,250.523a11.293,11.293,0,0,1-3.867-.865c-3.077-3.451-5.984-14.378-5.984-14.378l-2.662.681c-6,1.586-13.282-1.573-18.551-4.677,0-8.938,5.6-17.019,8.319-20.954,3.969-5.7,21.042-1.709,15.6,6.808C196.082,224.443,203.42,243.293,207.893,250.523Z" transform="translate(-56.453 -66.274)" fill="url(#linear-gradient-19)"/>
        <path id="Path_2277" data-name="Path 2277" d="M195.646,327.166c-3.758,2.948-10.211,7.659-15.657,9.646a23.567,23.567,0,0,1-9.115,1.518,27.1,27.1,0,0,1-2.253-6.127c6-3.4,25.46-5.861,26.291-5.5A5.016,5.016,0,0,1,195.646,327.166Z" transform="translate(-53.832 -104.264)" fill="#b5b5b5"/>
        <path id="Path_2278" data-name="Path 2278" d="M177.159,299.307a3.846,3.846,0,0,1-1.538,1.886c-2.723,1.593-21.212-6.283-26.345-6.848s-10.572,3.37-12.4,1.293c-.354-.4-.395-3.533.054-7.06.585-4.541,2-9.735,4.663-10.565,4.724-1.47,29.531,5.058,35.4,13.772C177.887,293.126,178.214,296.856,177.159,299.307Z" transform="translate(-43.609 -88.665)" fill="#ededed"/>
        <path id="Path_2279" data-name="Path 2279" d="M182.571,320.536c-2.042,1.484-27.972,8.224-34.719,6.644a9.712,9.712,0,0,1-7.488-8.659,9.026,9.026,0,0,1,.034-2.634l.558-2.975s-3.737-6.917-.858-8.469,9.694-.429,21.172,3.336,16.236,2.505,19.272,5.194S184.614,319.059,182.571,320.536Z" transform="translate(-44.379 -96.953)" fill="#ededed"/>
        <path id="Path_2280" data-name="Path 2280" d="M177.159,304.359a3.845,3.845,0,0,1-1.538,1.886c-2.723,1.593-21.212-6.283-26.345-6.848s-10.572,3.37-12.4,1.293c-.354-.4-.395-3.533.054-7.059a49.76,49.76,0,0,0,14.058,3.234C159.908,297.646,172.271,302.357,177.159,304.359Z" transform="translate(-43.609 -93.717)" fill="#dedede"/>
        <path id="Path_2281" data-name="Path 2281" d="M154.948,323.027a12.78,12.78,0,0,1-13.956-.218,9.027,9.027,0,0,1,.034-2.635l.558-2.975S145.342,322.51,154.948,323.027Z" transform="translate(-44.986 -101.241)" fill="#dedede"/>
        <path id="Path_2282" data-name="Path 2282" d="M261.473,627.942a266.264,266.264,0,0,1-26.713-1.7,145.953,145.953,0,0,0-30.314-8.938c-44.671-7.815-80.718,10.6-99.071,44.181-24.051,44-71.248,63.065-99.84,49.906C-4.227,706.9-.394,693.315,11.723,677h0c7.141-9.605,17.148-20.157,28.946-30.348,26.849-23.2,62.963-44.549,95.565-48.7a176.444,176.444,0,0,1,65.686,4.439A206.3,206.3,0,0,1,261.473,627.942Z" transform="translate(-0.002 -190.45)" fill="#45ffad"/>
        <path id="Path_2283" data-name="Path 2283" d="M90.535,656.643C75.456,691.682,27.34,710.88,16.672,708.381c-6.889-1.613-3.935-11.083-.973-17.591h0c7.141-9.605,17.148-20.157,28.946-30.348C73.57,638.045,102.06,629.849,90.535,656.643Z" transform="translate(-3.977 -204.237)" fill="#fff" opacity="0.63"/>
        <path id="Path_2284" data-name="Path 2284" d="M70.956,667.367c-7.4,17.216-31.029,26.638-36.271,25.406-3.4-.79-1.933-5.446-.477-8.639h0a96.841,96.841,0,0,1,14.214-14.888C62.63,658.231,76.62,654.208,70.956,667.367Z" transform="translate(-10.41 -210.392)" fill="#fff" opacity="0.88"/>
        <path id="Path_2285" data-name="Path 2285" d="M432.968,331.282s-3.771.742-8.292,1.9c-2.172.565-4.507,1.212-6.658,1.927a27.2,27.2,0,0,0-6.808,3.029s-1.069-10.892-.715-12.145c.157-.558,2.723-2.151,6.351-3.71a53.5,53.5,0,0,1,6.569-2.355,30.028,30.028,0,0,1,8.38-1.287Z" transform="translate(-131.025 -101.701)" fill="#fff"/>
        <path id="Path_2286" data-name="Path 2286" d="M418.019,336.805a27.2,27.2,0,0,0-6.808,3.029s-1.069-10.892-.715-12.145c.157-.558,2.723-2.151,6.351-3.71Z" transform="translate(-131.025 -103.406)" fill="#1cab80"/>
        <path id="Path_2287" data-name="Path 2287" d="M439.071,331.282s-3.771.742-8.292,1.9l-1.239-13.254a30.031,30.031,0,0,1,8.38-1.287Z" transform="translate(-137.128 -101.701)" fill="#1cab80"/>
        <path id="Path_2288" data-name="Path 2288" d="M694.34,471.47a40.6,40.6,0,1,1-44.93-40.362,40.146,40.146,0,0,1,4.364-.238A40.6,40.6,0,0,1,694.34,471.47Z" transform="translate(-195.74 -137.529)" fill="#46a0dc"/>
        <path id="Path_2289" data-name="Path 2289" d="M628.916,571.272a7.488,7.488,0,0,1-9.83,7.141h-.109a7.488,7.488,0,0,1,1.62-14.575,6.384,6.384,0,0,1,.81-.048,6.815,6.815,0,0,1,1.123.088A7.489,7.489,0,0,1,628.916,571.272Z" transform="translate(-195.954 -179.963)" fill="#45ffad"/>
        <path id="Path_2290" data-name="Path 2290" d="M704.413,471.483a40.621,40.621,0,0,1-53.726,38.456,84.128,84.128,0,0,1,8.761-78.791,40.15,40.15,0,0,1,4.364-.238A40.6,40.6,0,0,1,704.413,471.483Z" transform="translate(-205.812 -137.542)" opacity="0.29" fill="url(#linear-gradient-20)"/>
        <path id="Path_2291" data-name="Path 2291" d="M683.308,476.812c-10.463,4.765-24.14,10.286-39.273,15.7-12.853,4.6-24.929,8.462-35.093,11.321-17.019,4.765-28.633,6.767-29.422,4.561s9.041-7.815,24.678-14.7h0c-11.954,5.317-19.279,9.531-18.714,11.09s9.095.129,21.982-3.4c9.864-2.723,22.281-6.678,35.645-11.457,15.841-5.664,29.953-11.375,39.743-15.977,9.306-4.336,14.752-7.686,14.248-9.04s-6.651-.517-16.338,1.92a.074.074,0,0,0,0-.048c13.615-3.547,22.554-4.806,23.241-2.88S696.589,470.739,683.308,476.812Z" transform="translate(-184.993 -147.786)" fill="url(#linear-gradient-21)"/>
        <path id="Path_2292" data-name="Path 2292" d="M683.218,476.757c-10.525,4.8-21.274,9.081-32.111,13.118S629.322,497.69,618.28,501.1c-5.521,1.7-11.076,3.322-16.679,4.765-2.8.722-5.616,1.4-8.441,2a77.68,77.68,0,0,1-8.578,1.416c-.722.061-1.45.109-2.185.109a7.668,7.668,0,0,1-2.206-.259,1.47,1.47,0,0,1-.953-.749,1.416,1.416,0,0,1,.231-1.2,7.547,7.547,0,0,1,1.538-1.613,50.84,50.84,0,0,1,7.352-4.65c5.1-2.723,10.347-5.187,15.657-7.536l.218-.1.109.313h0l.041.129-.177.082c-3.023,1.361-6.032,2.723-8.986,4.234-1.47.742-2.941,1.511-4.371,2.328a31.794,31.794,0,0,0-4.085,2.723,5.721,5.721,0,0,0-.837.837c-.238.306-.368.64-.191.783a1.832,1.832,0,0,0,.994.313,7.9,7.9,0,0,0,1.205.034,35.206,35.206,0,0,0,4.895-.6c3.247-.586,6.467-1.362,9.674-2.178,12.819-3.343,25.42-7.488,37.911-11.886s24.875-9.156,37-14.487c3.023-1.361,6.038-2.723,9.006-4.166a64.624,64.624,0,0,0,8.612-4.854,6.538,6.538,0,0,0,1.688-1.627c.436-.606-.606-.8-1.361-.837a25.946,25.946,0,0,0-4.895.422c-3.254.531-6.488,1.273-9.7,2.042l-.252-.191a.1.1,0,0,0,.041.089l.088-.334c3.948-1.008,7.9-1.954,11.913-2.723,2-.368,4.01-.681,6.045-.892a20.887,20.887,0,0,1,3.063-.088,5.652,5.652,0,0,1,1.532.265,1.526,1.526,0,0,1,.681.429.925.925,0,0,1,.17.824,3.245,3.245,0,0,1-.885,1.362,11.7,11.7,0,0,1-1.157,1.021,30.033,30.033,0,0,1-2.505,1.75c-1.722,1.089-3.506,2.076-5.3,3.029C690.6,473.332,686.921,475.075,683.218,476.757Zm0-.061c3.69-1.709,7.352-3.472,10.94-5.392,1.784-.967,3.553-1.967,5.262-3.063a29.037,29.037,0,0,0,2.485-1.75,13.183,13.183,0,0,0,1.123-1.008,2.988,2.988,0,0,0,.79-1.212c.143-.47-.245-.837-.715-.967a5.276,5.276,0,0,0-1.464-.245,21.365,21.365,0,0,0-3.023.116c-2.042.2-4.023.545-6.018.926-3.982.783-7.931,1.75-11.866,2.784l.1-.334a.375.375,0,0,1,.082.184l-.252-.191c3.213-.817,6.44-1.586,9.721-2.144a26.5,26.5,0,0,1,5-.47,4.315,4.315,0,0,1,1.307.238,1.048,1.048,0,0,1,.592.551,1.015,1.015,0,0,1-.089.81,6.884,6.884,0,0,1-1.838,1.824,65.909,65.909,0,0,1-8.659,4.97q-4.459,2.226-9.013,4.228c-12.145,5.344-24.548,10.068-37.047,14.5s-25.14,8.482-37.993,11.8c-3.22.81-6.454,1.579-9.728,2.158a35.386,35.386,0,0,1-4.97.6,8.85,8.85,0,0,1-1.273-.041,3.153,3.153,0,0,1-.681-.123,1.437,1.437,0,0,1-.681-.354.83.83,0,0,1-.184-.824,1.9,1.9,0,0,1,.34-.626,6.456,6.456,0,0,1,.919-.912A30.44,30.44,0,0,1,590.573,500c1.443-.824,2.914-1.593,4.4-2.335,2.968-1.491,5.984-2.88,9.013-4.227l-.136.218h0l.327.211c-5.289,2.328-10.545,4.765-15.623,7.488a49.892,49.892,0,0,0-7.3,4.588,7.2,7.2,0,0,0-1.45,1.5,1.041,1.041,0,0,0-.2.851,1.089,1.089,0,0,0,.681.517,7.3,7.3,0,0,0,2.09.245c.681,0,1.43-.041,2.144-.1a79.033,79.033,0,0,0,8.537-1.362c2.825-.6,5.63-1.266,8.435-1.981,5.6-1.43,11.158-3.016,16.685-4.7q16.6-5.058,32.86-11.09C661.9,485.736,672.659,481.474,683.218,476.7Z" transform="translate(-184.903 -147.703)" fill="#fff"/>
        <path id="Path_2293" data-name="Path 2293" d="M801.181,533.8c-12.41,8.986-33.024,18.578-59.383,27.864-24.97-.232-70.8-1.545-70.8-7.944C671,546.979,759.757,537.742,801.181,533.8Z" transform="translate(-214.212 -170.389)" fill="#46a0dc" opacity="0.53"/>
        <path id="Path_2294" data-name="Path 2294" d="M703.113,585.965c-9.449,2.914-19.422,5.766-29.844,8.523-20.777-.681-44.447-2.042-49.137-4.765C617.058,585.631,679.858,585.774,703.113,585.965Z" transform="translate(-199.073 -187.018)" fill="#46a0dc" opacity="0.53"/>
        <path id="Path_2295" data-name="Path 2295" d="M631,571.3a7.488,7.488,0,0,1-9.83,7.141c-2.648-8.026,1.722-13,3.445-14.568A7.488,7.488,0,0,1,631,571.3Z" transform="translate(-198.038 -179.988)" fill="#35ee95"/>
        <path id="Path_2296" data-name="Path 2296" d="M382.367,498.961c-.136,1.865-.218,4.323-.218,7.55,0,14.521-13.615,27.475-16.672,31.043s-19.3,8.938-23.1,9.823c-2.4.558-6.338-.048-9.279-.919,2.852-2.893,6.426-6.195,10.817-9.953,0,0,23.827-6.624,29.273-26.706C375.92,499.648,379.153,497.763,382.367,498.961Z" transform="translate(-106.34 -159.165)" fill="#46a0dc"/>
        <path id="Path_2297" data-name="Path 2297" d="M407.58,490.5h-.15a.2.2,0,0,1,.15,0Z" transform="translate(-130.069 -156.562)" fill="#46a0dc"/>
        <path id="Path_2298" data-name="Path 2298" d="M438.739,510.963a5.192,5.192,0,0,0-.313.919c-.177.953-2.042,9.081-3.853,18.836s-10.668,10.776-10.1,8.734,5.793-19.279,5.793-19.279a21.782,21.782,0,0,1,1.361-2.893,3.636,3.636,0,0,0,1.048-.511C435.615,514.727,436.214,510.234,438.739,510.963Z" transform="translate(-135.503 -163.073)" fill="#46a0dc"/>
      </g>
    </g>
  </g>
</svg>
