<svg xmlns="http://www.w3.org/2000/svg" xmlns:xlink="http://www.w3.org/1999/xlink" width="473.952" height="501.68" viewBox="0 0 473.952 501.68">
  <defs>
    <linearGradient id="linear-gradient" x1="1.352" y1="-0.24" x2="0.5" y2="1" gradientUnits="objectBoundingBox">
      <stop offset="0" stop-color="#ffbdff"/>
      <stop offset="0.1" stop-color="#f5bfff"/>
      <stop offset="0.26" stop-color="#dbc4ff"/>
      <stop offset="0.47" stop-color="#b0ccff"/>
      <stop offset="0.72" stop-color="#75d8ff"/>
      <stop offset="0.909" stop-color="#2ae6ff"/>
      <stop offset="1" stop-color="#29e6ff"/>
    </linearGradient>
  </defs>
  <g id="Group_228" data-name="Group 228" transform="translate(-1156.016 -1987.161)">
    <path id="Path_2360" data-name="Path 2360" d="M12.528,35.592a2.567,2.567,0,0,1-2.136-.768,3.024,3.024,0,0,1-.6-1.92v-.1h0q0-.384.1-1.392a14.387,14.387,0,0,1,.432-2.28,9.608,9.608,0,0,1,1.032-2.448,5.468,5.468,0,0,1,5.016-2.712V28.1a5.292,5.292,0,0,0-2.784.6,3.789,3.789,0,0,0-1.392,1.416h.24a2.6,2.6,0,0,1,2.16.792,3.044,3.044,0,0,1,.624,1.944,3.126,3.126,0,0,1-.6,1.944A2.463,2.463,0,0,1,12.528,35.592Zm-7.728,0a2.577,2.577,0,0,1-2.112-.768,2.946,2.946,0,0,1-.624-1.92v-.1h0q0-.384.1-1.392a14.387,14.387,0,0,1,.432-2.28,9.146,9.146,0,0,1,1.056-2.448,6.02,6.02,0,0,1,1.92-1.944,5.606,5.606,0,0,1,3.072-.768V28.1a5.292,5.292,0,0,0-2.784.6A3.423,3.423,0,0,0,4.512,30.12H4.7a2.663,2.663,0,0,1,2.208.792,3.34,3.34,0,0,1,0,3.888A2.535,2.535,0,0,1,4.8,35.592ZM32.736,51.48a7.453,7.453,0,0,1-3.024-.552,6.913,6.913,0,0,1-2.04-1.32,6.727,6.727,0,0,1-1.152-1.392q-.36-.624-.408-.72h-.1L25.2,51H20.976V23.976h5.04V35.592h.1q.048-.144.384-.816a6.849,6.849,0,0,1,1.08-1.488,6.355,6.355,0,0,1,2.016-1.416,7.347,7.347,0,0,1,3.144-.6q4.32,0,6.24,2.784A12.886,12.886,0,0,1,40.9,41.5,12.494,12.494,0,0,1,39,48.744Q37.1,51.48,32.736,51.48Zm-1.584-4.128a4.865,4.865,0,0,0,3.048-.84A4.265,4.265,0,0,0,35.688,44.3a9.94,9.94,0,0,0,.408-2.856,8.972,8.972,0,0,0-.432-2.808,4.3,4.3,0,0,0-1.56-2.16,5.081,5.081,0,0,0-3.1-.84A4.28,4.28,0,0,0,27.192,37.3a7.212,7.212,0,0,0-1.128,4.152A7.167,7.167,0,0,0,27.24,45.7,4.464,4.464,0,0,0,31.152,47.352ZM51.264,51.48a6.954,6.954,0,0,1-4.032-1.008,5.785,5.785,0,0,1-2.088-2.592,11.174,11.174,0,0,1-.792-3.336q-.144-1.752-.144-3.192V31.272H48.96v10.08a13.489,13.489,0,0,0,.288,2.832,3.84,3.84,0,0,0,1.224,2.16,4.256,4.256,0,0,0,2.856.816,3.786,3.786,0,0,0,4.128-2.976A12.378,12.378,0,0,0,57.84,41.5l.048-10.224H62.88V51H58.7l-.816-3.744h-.1a6.4,6.4,0,0,1-.48.96,7.441,7.441,0,0,1-1.128,1.44,6.07,6.07,0,0,1-1.944,1.3A7.394,7.394,0,0,1,51.264,51.48ZM69.792,29.112a2.222,2.222,0,0,1-2.088-.744,3.457,3.457,0,0,1-.5-1.9,3.14,3.14,0,0,1,.528-1.824,2.35,2.35,0,0,1,2.064-.768,2.22,2.22,0,0,1,1.992.768,3.6,3.6,0,0,1,0,3.672A2.353,2.353,0,0,1,69.792,29.112ZM67.3,51V31.272h4.9V51Zm9.7,0V23.976h4.8V51Zm17.28.48q-4.416,0-6.288-2.76A12.639,12.639,0,0,1,86.112,41.5a12.886,12.886,0,0,1,1.92-7.44q1.92-2.784,6.24-2.784a7.347,7.347,0,0,1,3.144.6,6.355,6.355,0,0,1,2.016,1.416,6.848,6.848,0,0,1,1.08,1.488q.336.672.384.816h.1V23.976h5.04V51h-4.224l-.816-3.5h-.1q-.048.1-.408.72a6.727,6.727,0,0,1-1.152,1.392,6.914,6.914,0,0,1-2.04,1.32A7.453,7.453,0,0,1,94.272,51.48Zm1.584-4.128A4.464,4.464,0,0,0,99.768,45.7a7.167,7.167,0,0,0,1.176-4.248A7.212,7.212,0,0,0,99.816,37.3,4.28,4.28,0,0,0,96,35.64a5.081,5.081,0,0,0-3.1.84,4.305,4.305,0,0,0-1.56,2.16,8.972,8.972,0,0,0-.432,2.808A9.94,9.94,0,0,0,91.32,44.3a4.265,4.265,0,0,0,1.488,2.208A4.865,4.865,0,0,0,95.856,47.352Zm17.52-18.24a2.222,2.222,0,0,1-2.088-.744,3.457,3.457,0,0,1-.5-1.9,3.14,3.14,0,0,1,.528-1.824,2.35,2.35,0,0,1,2.064-.768,2.22,2.22,0,0,1,1.992.768,3.6,3.6,0,0,1,0,3.672A2.353,2.353,0,0,1,113.376,29.112ZM110.88,51V31.272h4.9V51Zm9.168,0V31.368h4.176l.816,4.176h.1q.048-.144.36-.792a6.42,6.42,0,0,1,1.056-1.464,6.355,6.355,0,0,1,2.016-1.416,7.476,7.476,0,0,1,3.192-.6,6.806,6.806,0,0,1,4.08,1.056,5.9,5.9,0,0,1,2.064,2.664,11.906,11.906,0,0,1,.768,3.336q.144,1.728.144,3.12V51h-4.8V41.4a13.637,13.637,0,0,0-.288-2.9,3.71,3.71,0,0,0-1.224-2.112,4.176,4.176,0,0,0-2.76-.792,4.381,4.381,0,0,0-2.928.864,4.444,4.444,0,0,0-1.392,2.232,10.7,10.7,0,0,0-.384,2.9V51Zm27.888,8.784V55.176h8.64V47.5h-.1q-.048.1-.408.72a7.045,7.045,0,0,1-1.128,1.392,6.645,6.645,0,0,1-1.992,1.32,7.416,7.416,0,0,1-3.048.552q-4.368,0-6.288-2.784a12.514,12.514,0,0,1-1.92-7.248,12.65,12.65,0,0,1,1.944-7.416q1.944-2.76,6.264-2.76a7.312,7.312,0,0,1,3.168.6,6.113,6.113,0,0,1,1.968,1.416,6.447,6.447,0,0,1,1.032,1.488q.312.672.36.816h.1l.048-4.32h5.04V52.68q0,3.936-1.56,5.52a6.512,6.512,0,0,1-4.824,1.584Zm3.5-12.432a4.475,4.475,0,0,0,3.888-1.656,7.062,7.062,0,0,0,1.2-4.248,7.1,7.1,0,0,0-1.152-4.152,4.344,4.344,0,0,0-3.84-1.656,4.972,4.972,0,0,0-3.072.84,4.5,4.5,0,0,0-1.56,2.16,8.54,8.54,0,0,0-.456,2.808,9.94,9.94,0,0,0,.408,2.856,4.265,4.265,0,0,0,1.488,2.208A4.953,4.953,0,0,0,151.44,47.352ZM181.2,59.784V55.176h8.64V47.5h-.1q-.048.1-.408.72a7.045,7.045,0,0,1-1.128,1.392,6.645,6.645,0,0,1-1.992,1.32,7.416,7.416,0,0,1-3.048.552q-4.368,0-6.288-2.784a12.514,12.514,0,0,1-1.92-7.248,12.65,12.65,0,0,1,1.944-7.416q1.944-2.76,6.264-2.76a7.312,7.312,0,0,1,3.168.6,6.113,6.113,0,0,1,1.968,1.416,6.447,6.447,0,0,1,1.032,1.488q.312.672.36.816h.1l.048-4.32h5.04V52.68q0,3.936-1.56,5.52a6.512,6.512,0,0,1-4.824,1.584Zm3.5-12.432a4.475,4.475,0,0,0,3.888-1.656,7.062,7.062,0,0,0,1.2-4.248A7.1,7.1,0,0,0,188.64,37.3a4.344,4.344,0,0,0-3.84-1.656,4.972,4.972,0,0,0-3.072.84,4.5,4.5,0,0,0-1.56,2.16,8.54,8.54,0,0,0-.456,2.808,9.94,9.94,0,0,0,.408,2.856,4.265,4.265,0,0,0,1.488,2.208A4.953,4.953,0,0,0,184.7,47.352ZM199.008,51V23.976h4.8V51Zm18.192.48a10.863,10.863,0,0,1-5.568-1.3,8.218,8.218,0,0,1-3.312-3.576,11.8,11.8,0,0,1-1.1-5.208,10.405,10.405,0,0,1,2.472-7.272q2.52-2.856,7.512-2.856,4.848,0,7.368,2.784a10.524,10.524,0,0,1,2.52,7.344,12.184,12.184,0,0,1-1.056,5.136,8.042,8.042,0,0,1-3.264,3.624A10.7,10.7,0,0,1,217.2,51.48Zm0-4.128a5.042,5.042,0,0,0,3.24-.912,4.4,4.4,0,0,0,1.512-2.328,10.867,10.867,0,0,0,.384-2.856,11.316,11.316,0,0,0-.384-2.928,4.4,4.4,0,0,0-1.512-2.352,6.227,6.227,0,0,0-6.528.024,4.668,4.668,0,0,0-1.536,2.352,10.436,10.436,0,0,0-.408,2.9,10.268,10.268,0,0,0,.408,2.856,4.537,4.537,0,0,0,1.536,2.328A5.128,5.128,0,0,0,217.2,47.352Zm25.392,4.128a7.453,7.453,0,0,1-3.024-.552,6.914,6.914,0,0,1-2.04-1.32,6.727,6.727,0,0,1-1.152-1.392q-.36-.624-.408-.72h-.1l-.816,3.5h-4.224V23.976h5.04V35.592h.1q.048-.144.384-.816a6.848,6.848,0,0,1,1.08-1.488,6.355,6.355,0,0,1,2.016-1.416,7.347,7.347,0,0,1,3.144-.6q4.32,0,6.24,2.784a12.886,12.886,0,0,1,1.92,7.44,12.494,12.494,0,0,1-1.9,7.248Q246.96,51.48,242.592,51.48Zm-1.584-4.128a4.865,4.865,0,0,0,3.048-.84,4.265,4.265,0,0,0,1.488-2.208,9.94,9.94,0,0,0,.408-2.856,8.972,8.972,0,0,0-.432-2.808,4.3,4.3,0,0,0-1.56-2.16,5.081,5.081,0,0,0-3.1-.84,4.28,4.28,0,0,0-3.816,1.656,7.212,7.212,0,0,0-1.128,4.152A7.167,7.167,0,0,0,237.1,45.7,4.464,4.464,0,0,0,241.008,47.352Zm20.016,4.128q-4.08,0-5.808-2.784a13.68,13.68,0,0,1-1.728-7.3,13.761,13.761,0,0,1,1.752-7.368q1.752-2.808,5.784-2.808a7.176,7.176,0,0,1,3.648.792,6.321,6.321,0,0,1,2.016,1.752,5.923,5.923,0,0,1,.816,1.44h.1V31.272h5.04V51h-4.224l-.816-3.216h-.1a5.31,5.31,0,0,1-.84,1.32,6.557,6.557,0,0,1-2.064,1.632A7.468,7.468,0,0,1,261.024,51.48Zm2.016-4.128q2.688,0,3.624-1.7a8.626,8.626,0,0,0,.936-4.2,8.363,8.363,0,0,0-.96-4.272q-.96-1.632-3.6-1.632a4.578,4.578,0,0,0-2.9.816A4.251,4.251,0,0,0,258.7,38.5a9.975,9.975,0,0,0-.408,2.952,10.217,10.217,0,0,0,.408,2.976,4.119,4.119,0,0,0,1.44,2.136A4.678,4.678,0,0,0,263.04,47.352ZM276.528,51V23.976h4.8V51Zm31.584.48a7.416,7.416,0,0,1-3.048-.552,6.319,6.319,0,0,1-1.968-1.32,7.421,7.421,0,0,1-1.1-1.392q-.36-.624-.408-.72h-.1V59.784h-5.04V31.272h4.272l.816,4.32h.1q.048-.144.36-.816A6.782,6.782,0,0,1,303,33.288a5.827,5.827,0,0,1,1.944-1.416,7.184,7.184,0,0,1,3.12-.6q4.416,0,6.336,2.832a12.933,12.933,0,0,1,1.92,7.392,12.129,12.129,0,0,1-1.968,7.272Q312.384,51.48,308.112,51.48Zm-1.488-4.128a4.953,4.953,0,0,0,3.1-.84,4.265,4.265,0,0,0,1.488-2.208,9.939,9.939,0,0,0,.408-2.856,8.54,8.54,0,0,0-.456-2.808,4.5,4.5,0,0,0-1.56-2.16,4.972,4.972,0,0,0-3.072-.84,4.344,4.344,0,0,0-3.84,1.656,7.1,7.1,0,0,0-1.152,4.152,7.062,7.062,0,0,0,1.2,4.248A4.475,4.475,0,0,0,306.624,47.352ZM320.016,51V23.976h4.8V51Zm15.648.48q-4.08,0-5.808-2.784a13.68,13.68,0,0,1-1.728-7.3,13.761,13.761,0,0,1,1.752-7.368q1.752-2.808,5.784-2.808a7.176,7.176,0,0,1,3.648.792,6.321,6.321,0,0,1,2.016,1.752,5.921,5.921,0,0,1,.816,1.44h.1V31.272h5.04V51h-4.224l-.816-3.216h-.1a5.308,5.308,0,0,1-.84,1.32,6.556,6.556,0,0,1-2.064,1.632A7.468,7.468,0,0,1,335.664,51.48Zm2.016-4.128q2.688,0,3.624-1.7a8.626,8.626,0,0,0,.936-4.2,8.363,8.363,0,0,0-.96-4.272q-.96-1.632-3.6-1.632a4.578,4.578,0,0,0-2.9.816,4.251,4.251,0,0,0-1.44,2.136,9.975,9.975,0,0,0-.408,2.952,10.217,10.217,0,0,0,.408,2.976,4.119,4.119,0,0,0,1.44,2.136A4.678,4.678,0,0,0,337.68,47.352ZM357.12,51a4.853,4.853,0,0,1-3.528-1.152,5.073,5.073,0,0,1-1.176-3.744V34.728H349.44V31.272a6.386,6.386,0,0,0,2.16-.288,1.931,1.931,0,0,0,1.1-1.344,12.339,12.339,0,0,0,.336-3.408h3.936v5.04h4.512v3.456h-4.512V47.16h4.608V51Zm9.888.048V34.728H364.32V31.272h2.688V28.056a5.073,5.073,0,0,1,1.176-3.744,4.853,4.853,0,0,1,3.528-1.152H376.9v3.792H371.9v4.32h4.848v3.456H371.9v16.32Zm21.408.432a10.863,10.863,0,0,1-5.568-1.3,8.218,8.218,0,0,1-3.312-3.576,11.8,11.8,0,0,1-1.1-5.208,10.405,10.405,0,0,1,2.472-7.272q2.52-2.856,7.512-2.856,4.848,0,7.368,2.784A10.524,10.524,0,0,1,398.3,41.4a12.184,12.184,0,0,1-1.056,5.136,8.042,8.042,0,0,1-3.264,3.624A10.7,10.7,0,0,1,388.416,51.48Zm0-4.128a5.042,5.042,0,0,0,3.24-.912,4.4,4.4,0,0,0,1.512-2.328,10.866,10.866,0,0,0,.384-2.856,11.315,11.315,0,0,0-.384-2.928,4.4,4.4,0,0,0-1.512-2.352,6.227,6.227,0,0,0-6.528.024,4.668,4.668,0,0,0-1.536,2.352,10.436,10.436,0,0,0-.408,2.9,10.268,10.268,0,0,0,.408,2.856,4.537,4.537,0,0,0,1.536,2.328A5.128,5.128,0,0,0,388.416,47.352ZM402,51V31.272h4.56l.336,5.472a7.762,7.762,0,0,1,1.128-2.52,6.574,6.574,0,0,1,2.352-2.112,8.012,8.012,0,0,1,3.912-.84h.72v5.472h-.72q-4.128,0-5.76,1.32T406.9,42.5V51Zm15.984,0V31.272h4.272l.048,4.272h.1a5.415,5.415,0,0,1,.384-.84,7.978,7.978,0,0,1,1.008-1.44,6.134,6.134,0,0,1,1.776-1.392,5.672,5.672,0,0,1,2.736-.6,4.722,4.722,0,0,1,3.6,1.272,7.5,7.5,0,0,1,1.728,3h.1a4.909,4.909,0,0,1,.408-.84,7.539,7.539,0,0,1,1.1-1.44,7.017,7.017,0,0,1,1.9-1.392,6.077,6.077,0,0,1,2.832-.6,5.238,5.238,0,0,1,3.024.792,5.586,5.586,0,0,1,1.8,2.016A9.235,9.235,0,0,1,445.7,36.7a15.921,15.921,0,0,1,.288,2.664q.024,1.272.024,2.088V51h-4.128V41.4q0-.72-.048-1.7a6.606,6.606,0,0,0-.384-1.92,3.494,3.494,0,0,0-1.1-1.56,3.257,3.257,0,0,0-2.112-.624,3.393,3.393,0,0,0-2.544.888,4.8,4.8,0,0,0-1.2,2.256,11.932,11.932,0,0,0-.336,2.856V51h-4.128V41.4q0-.72-.048-1.7a6.606,6.606,0,0,0-.384-1.92,3.494,3.494,0,0,0-1.1-1.56,3.257,3.257,0,0,0-2.112-.624,3.393,3.393,0,0,0-2.544.888,4.8,4.8,0,0,0-1.2,2.256,11.932,11.932,0,0,0-.336,2.856V51Zm39.984.48a10.123,10.123,0,0,1-2.76-.432,11.064,11.064,0,0,1-2.88-1.3,7.323,7.323,0,0,1-2.256-2.232,5.818,5.818,0,0,1-.888-3.24H453.7q0,.1.048.648a3.428,3.428,0,0,0,.408,1.248,3.2,3.2,0,0,0,1.224,1.224,4.828,4.828,0,0,0,2.5.528,4.9,4.9,0,0,0,2.88-.7,1.981,1.981,0,0,0,.96-1.608,1.894,1.894,0,0,0-.888-1.656,7.752,7.752,0,0,0-2.28-.984q-1.392-.384-2.952-.792a15.539,15.539,0,0,1-2.928-1.08,6,6,0,0,1-2.232-1.848,5.021,5.021,0,0,1-.864-3.048,4.624,4.624,0,0,1,2.208-4.152,10.225,10.225,0,0,1,5.616-1.416,13.069,13.069,0,0,1,4.464.744,7.155,7.155,0,0,1,3.312,2.352,6.658,6.658,0,0,1,1.248,4.2H461.9a3.013,3.013,0,0,0-.648-2.232,3.663,3.663,0,0,0-1.728-1.032,7.4,7.4,0,0,0-1.992-.288,4.686,4.686,0,0,0-2.616.6,1.813,1.813,0,0,0-.888,1.56,1.937,1.937,0,0,0,.888,1.7,7.731,7.731,0,0,0,2.3.984q1.416.384,2.976.792a16.893,16.893,0,0,1,2.976,1.08,6.328,6.328,0,0,1,2.3,1.8,4.715,4.715,0,0,1,.888,3,4.541,4.541,0,0,1-2.328,4.2A11.89,11.89,0,0,1,457.968,51.48Zm12.48,4.416V52.68H471.6a2.863,2.863,0,0,0,1.728-.384,1.568,1.568,0,0,0,.48-1.3,3.105,3.105,0,0,1-2.544-.7,2.916,2.916,0,0,1-.72-2.04,3.044,3.044,0,0,1,.624-1.944,2.6,2.6,0,0,1,2.16-.792,2.532,2.532,0,0,1,1.944.744,4.578,4.578,0,0,1,.7,3,10.479,10.479,0,0,1-.96,4.68,3.432,3.432,0,0,1-3.36,1.944ZM10.176,115.48q-4.416,0-6.288-2.76A12.639,12.639,0,0,1,2.016,105.5a12.886,12.886,0,0,1,1.92-7.44q1.92-2.784,6.24-2.784a7.347,7.347,0,0,1,3.144.6,6.355,6.355,0,0,1,2.016,1.416,6.849,6.849,0,0,1,1.08,1.488q.336.672.384.816h.1V87.976h5.04V115H17.712l-.816-3.5h-.1q-.048.1-.408.72a6.727,6.727,0,0,1-1.152,1.392,6.913,6.913,0,0,1-2.04,1.32A7.453,7.453,0,0,1,10.176,115.48Zm1.584-4.128a4.464,4.464,0,0,0,3.912-1.656,8.233,8.233,0,0,0,.048-8.4A4.28,4.28,0,0,0,11.9,99.64a5.081,5.081,0,0,0-3.1.84,4.305,4.305,0,0,0-1.56,2.16,8.972,8.972,0,0,0-.432,2.808,9.94,9.94,0,0,0,.408,2.856,4.265,4.265,0,0,0,1.488,2.208A4.865,4.865,0,0,0,11.76,111.352ZM25.92,115V95.272h4.56l.336,5.472a7.762,7.762,0,0,1,1.128-2.52A6.574,6.574,0,0,1,34.3,96.112a8.012,8.012,0,0,1,3.912-.84h.72v5.472h-.72q-4.128,0-5.76,1.32t-1.632,4.44V115ZM45.168,93.112a2.222,2.222,0,0,1-2.088-.744,3.457,3.457,0,0,1-.5-1.9,3.14,3.14,0,0,1,.528-1.824,2.35,2.35,0,0,1,2.064-.768,2.22,2.22,0,0,1,1.992.768,3.6,3.6,0,0,1,0,3.672A2.353,2.353,0,0,1,45.168,93.112ZM42.672,115V95.272h4.9V115ZM66.1,95.272h4.8v.816L64.128,115H57.312L50.544,96.136v-.864h4.7l5.52,15.7h.1ZM82.32,115.48a9.614,9.614,0,0,1-5.544-1.464,8.95,8.95,0,0,1-3.168-3.744,12.131,12.131,0,0,1-1.08-4.824,11.191,11.191,0,0,1,1.128-5.3,8.813,8.813,0,0,1,3.36-3.648,9.784,9.784,0,0,1,5.16-1.32A9.623,9.623,0,0,1,86.9,96.328a8.761,8.761,0,0,1,3.336,3.24,9.741,9.741,0,0,1,1.3,4.92v1.248H77.184a5.994,5.994,0,0,0,1.344,4.2,4.768,4.768,0,0,0,3.7,1.464,4.959,4.959,0,0,0,3.048-.912,3.609,3.609,0,0,0,1.464-2.4h4.752a8.049,8.049,0,0,1-2.688,5.256A9.282,9.282,0,0,1,82.32,115.48Zm-4.992-11.952H86.64q-.048-.336-.216-1.056a5.288,5.288,0,0,0-.624-1.488,3.694,3.694,0,0,0-1.368-1.3,4.654,4.654,0,0,0-2.352-.528,4.554,4.554,0,0,0-2.9.792,4.432,4.432,0,0,0-1.392,1.824A6.037,6.037,0,0,0,77.328,103.528ZM95.28,115V95.368h4.176l.816,4.176h.1q.048-.144.36-.792a6.42,6.42,0,0,1,1.056-1.464,6.355,6.355,0,0,1,2.016-1.416,7.476,7.476,0,0,1,3.192-.6,6.806,6.806,0,0,1,4.08,1.056,5.9,5.9,0,0,1,2.064,2.664,11.907,11.907,0,0,1,.768,3.336q.144,1.728.144,3.12V115h-4.8v-9.6a13.637,13.637,0,0,0-.288-2.9,3.71,3.71,0,0,0-1.224-2.112,4.176,4.176,0,0,0-2.76-.792,4.381,4.381,0,0,0-2.928.864,4.444,4.444,0,0,0-1.392,2.232,10.7,10.7,0,0,0-.384,2.9V115Zm44.88.48a7.453,7.453,0,0,1-3.024-.552,6.914,6.914,0,0,1-2.04-1.32,6.727,6.727,0,0,1-1.152-1.392q-.36-.624-.408-.72h-.1l-.816,3.5H128.4V87.976h5.04V99.592h.1q.048-.144.384-.816A6.849,6.849,0,0,1,135,97.288a6.355,6.355,0,0,1,2.016-1.416,7.347,7.347,0,0,1,3.144-.6q4.32,0,6.24,2.784a12.886,12.886,0,0,1,1.92,7.44,12.494,12.494,0,0,1-1.9,7.248Q144.528,115.48,140.16,115.48Zm-1.584-4.128a4.865,4.865,0,0,0,3.048-.84,4.265,4.265,0,0,0,1.488-2.208,9.94,9.94,0,0,0,.408-2.856,8.972,8.972,0,0,0-.432-2.808,4.3,4.3,0,0,0-1.56-2.16,5.081,5.081,0,0,0-3.1-.84,4.28,4.28,0,0,0-3.816,1.656,8.233,8.233,0,0,0,.048,8.4A4.464,4.464,0,0,0,138.576,111.352Zm11.376,12.816v-3.792h3.024a4.779,4.779,0,0,0,1.248-.144,2.263,2.263,0,0,0,1.056-.744,9.529,9.529,0,0,0,1.2-1.944l1.3-2.88L150.1,95.272h5.04l5.04,14.352L165.6,95.272h5.04l-9.7,22.752a21.543,21.543,0,0,1-2.112,4.008,4.55,4.55,0,0,1-2.136,1.728,9.3,9.3,0,0,1-3,.408ZM186.72,93.112a2.222,2.222,0,0,1-2.088-.744,3.457,3.457,0,0,1-.5-1.9,3.14,3.14,0,0,1,.528-1.824,2.35,2.35,0,0,1,2.064-.768,2.22,2.22,0,0,1,1.992.768,3.6,3.6,0,0,1,0,3.672A2.353,2.353,0,0,1,186.72,93.112ZM184.224,115V95.272h4.9V115Zm9.168,0V95.368h4.176l.816,4.176h.1q.048-.144.36-.792a6.42,6.42,0,0,1,1.056-1.464,6.355,6.355,0,0,1,2.016-1.416,7.476,7.476,0,0,1,3.192-.6,6.806,6.806,0,0,1,4.08,1.056,5.9,5.9,0,0,1,2.064,2.664,11.906,11.906,0,0,1,.768,3.336q.144,1.728.144,3.12V115h-4.8v-9.6a13.637,13.637,0,0,0-.288-2.9,3.71,3.71,0,0,0-1.224-2.112,4.176,4.176,0,0,0-2.76-.792,4.381,4.381,0,0,0-2.928.864,4.443,4.443,0,0,0-1.392,2.232,10.7,10.7,0,0,0-.384,2.9V115Zm22.368,0V95.368h4.176l.816,4.176h.1q.048-.144.36-.792a6.42,6.42,0,0,1,1.056-1.464,6.355,6.355,0,0,1,2.016-1.416,7.476,7.476,0,0,1,3.192-.6,6.806,6.806,0,0,1,4.08,1.056,5.9,5.9,0,0,1,2.064,2.664,11.907,11.907,0,0,1,.768,3.336q.144,1.728.144,3.12V115h-4.8v-9.6a13.637,13.637,0,0,0-.288-2.9,3.71,3.71,0,0,0-1.224-2.112,4.176,4.176,0,0,0-2.76-.792,4.381,4.381,0,0,0-2.928.864,4.443,4.443,0,0,0-1.392,2.232,10.7,10.7,0,0,0-.384,2.9V115Zm31.68.48a10.863,10.863,0,0,1-5.568-1.3,8.218,8.218,0,0,1-3.312-3.576,11.8,11.8,0,0,1-1.1-5.208,10.405,10.405,0,0,1,2.472-7.272q2.52-2.856,7.512-2.856,4.848,0,7.368,2.784a10.524,10.524,0,0,1,2.52,7.344,12.184,12.184,0,0,1-1.056,5.136,8.042,8.042,0,0,1-3.264,3.624A10.7,10.7,0,0,1,247.44,115.48Zm0-4.128a5.042,5.042,0,0,0,3.24-.912,4.4,4.4,0,0,0,1.512-2.328,10.867,10.867,0,0,0,.384-2.856,11.316,11.316,0,0,0-.384-2.928,4.4,4.4,0,0,0-1.512-2.352,6.227,6.227,0,0,0-6.528.024,4.668,4.668,0,0,0-1.536,2.352,10.437,10.437,0,0,0-.408,2.9,10.269,10.269,0,0,0,.408,2.856,4.537,4.537,0,0,0,1.536,2.328A5.128,5.128,0,0,0,247.44,111.352Zm26.976-16.08h4.8v.816L272.448,115h-6.816l-6.768-18.864v-.864h4.7l5.52,15.7h.1Zm14.592,20.208q-4.08,0-5.808-2.784a13.68,13.68,0,0,1-1.728-7.3,13.761,13.761,0,0,1,1.752-7.368q1.752-2.808,5.784-2.808a7.176,7.176,0,0,1,3.648.792,6.321,6.321,0,0,1,2.016,1.752,5.921,5.921,0,0,1,.816,1.44h.1V95.272h5.04V115H296.4l-.816-3.216h-.1a5.308,5.308,0,0,1-.84,1.32,6.556,6.556,0,0,1-2.064,1.632A7.468,7.468,0,0,1,289.008,115.48Zm2.016-4.128q2.688,0,3.624-1.7a8.626,8.626,0,0,0,.936-4.2,8.363,8.363,0,0,0-.96-4.272q-.96-1.632-3.6-1.632a4.578,4.578,0,0,0-2.9.816,4.251,4.251,0,0,0-1.44,2.136,9.975,9.975,0,0,0-.408,2.952,10.217,10.217,0,0,0,.408,2.976,4.119,4.119,0,0,0,1.44,2.136A4.678,4.678,0,0,0,291.024,111.352ZM310.464,115a4.853,4.853,0,0,1-3.528-1.152,5.073,5.073,0,0,1-1.176-3.744V98.728h-2.976V95.272a6.386,6.386,0,0,0,2.16-.288,1.931,1.931,0,0,0,1.1-1.344,12.339,12.339,0,0,0,.336-3.408h3.936v5.04h4.512v3.456H310.32V111.16h4.608V115Zm11.424-21.888a2.222,2.222,0,0,1-2.088-.744,3.457,3.457,0,0,1-.5-1.9,3.14,3.14,0,0,1,.528-1.824,2.35,2.35,0,0,1,2.064-.768,2.22,2.22,0,0,1,1.992.768,3.6,3.6,0,0,1,0,3.672A2.353,2.353,0,0,1,321.888,93.112ZM319.392,115V95.272h4.9V115Zm18.48.48a10.863,10.863,0,0,1-5.568-1.3,8.218,8.218,0,0,1-3.312-3.576,11.8,11.8,0,0,1-1.1-5.208,10.405,10.405,0,0,1,2.472-7.272q2.52-2.856,7.512-2.856,4.848,0,7.368,2.784a10.524,10.524,0,0,1,2.52,7.344,12.184,12.184,0,0,1-1.056,5.136,8.042,8.042,0,0,1-3.264,3.624A10.7,10.7,0,0,1,337.872,115.48Zm0-4.128a5.042,5.042,0,0,0,3.24-.912,4.4,4.4,0,0,0,1.512-2.328,10.866,10.866,0,0,0,.384-2.856,11.315,11.315,0,0,0-.384-2.928,4.4,4.4,0,0,0-1.512-2.352,6.227,6.227,0,0,0-6.528.024,4.668,4.668,0,0,0-1.536,2.352,10.436,10.436,0,0,0-.408,2.9,10.268,10.268,0,0,0,.408,2.856,4.537,4.537,0,0,0,1.536,2.328A5.129,5.129,0,0,0,337.872,111.352ZM351.216,115V95.368h4.176l.816,4.176h.1q.048-.144.36-.792a6.42,6.42,0,0,1,1.056-1.464,6.355,6.355,0,0,1,2.016-1.416,7.476,7.476,0,0,1,3.192-.6,6.806,6.806,0,0,1,4.08,1.056,5.9,5.9,0,0,1,2.064,2.664,11.905,11.905,0,0,1,.768,3.336q.144,1.728.144,3.12V115h-4.8v-9.6a13.638,13.638,0,0,0-.288-2.9,3.71,3.71,0,0,0-1.224-2.112,4.176,4.176,0,0,0-2.76-.792,4.381,4.381,0,0,0-2.928.864,4.444,4.444,0,0,0-1.392,2.232,10.7,10.7,0,0,0-.384,2.9V115Zm22.656-15.408v-4.08a5.106,5.106,0,0,0,2.808-.624,4.015,4.015,0,0,0,1.368-1.44h-.192a2.663,2.663,0,0,1-2.208-.792,3.044,3.044,0,0,1-.624-1.944,3.126,3.126,0,0,1,.6-1.944,2.525,2.525,0,0,1,2.136-.792,2.463,2.463,0,0,1,2.088.792,3.126,3.126,0,0,1,.6,1.944v.048h0q0,.432-.1,1.44a13.814,13.814,0,0,1-.432,2.256,9.7,9.7,0,0,1-1.032,2.424,5.468,5.468,0,0,1-5.016,2.712Zm7.728,0v-4.08a5.126,5.126,0,0,0,2.784-.624,3.961,3.961,0,0,0,1.392-1.44h-.24a2.6,2.6,0,0,1-2.16-.792,3.044,3.044,0,0,1-.624-1.944,3.126,3.126,0,0,1,.6-1.944,2.463,2.463,0,0,1,2.088-.792,2.525,2.525,0,0,1,2.136.792,3.126,3.126,0,0,1,.6,1.944v.048h0q0,.432-.1,1.44a13.814,13.814,0,0,1-.432,2.256,9.7,9.7,0,0,1-1.032,2.424,5.469,5.469,0,0,1-5.016,2.712ZM395.328,115a2.654,2.654,0,0,1-2.352-.864,3.722,3.722,0,0,1-.576-2.112,3.446,3.446,0,0,1,.6-2.016,2.661,2.661,0,0,1,2.328-.864,2.538,2.538,0,0,1,2.232.864,3.446,3.446,0,0,1,.6,2.016,3.612,3.612,0,0,1-.6,2.112A2.538,2.538,0,0,1,395.328,115Z" transform="translate(1154 2166)" fill="#20a5de"/>
    <path id="Subtraction_3" data-name="Subtraction 3" d="M-11252.784,501.68a51.711,51.711,0,0,1-26.215-6.621,50.623,50.623,0,0,1-17.034-16.449,80.25,80.25,0,0,1-10.316-24.931,146.741,146.741,0,0,1-3.77-32.2,249.759,249.759,0,0,1,2.606-38.257c1.187-8.45,2.795-17.327,4.779-26.383h12.55c-.644,3.955-1.206,7.906-1.669,11.745a218.735,218.735,0,0,0-1.605,34.748,132.38,132.38,0,0,0,4.224,29.375,75.677,75.677,0,0,0,10.188,22.9,50.1,50.1,0,0,0,16.278,15.335,51.506,51.506,0,0,0,26.108,6.607h.02c13.425,0,28.531-4.163,44.9-12.366,16.1-8.069,32.985-19.816,50.186-34.916a425.872,425.872,0,0,0,51.116-54.2c4.954-6.2,9.882-12.67,14.646-19.227h5.448c-7.218,10.372-14.715,20.5-22.283,30.1a494.131,494.131,0,0,1-56.615,61.208,329.909,329.909,0,0,1-28.009,22.7,224.928,224.928,0,0,1-27,16.809,140.635,140.635,0,0,1-25.38,10.434A83.458,83.458,0,0,1-11252.784,501.68Zm40.191-331.84h-9.638a650.723,650.723,0,0,1,38.858-55.1,494.156,494.156,0,0,1,56.618-61.21,329.963,329.963,0,0,1,28.009-22.7,224.254,224.254,0,0,1,27-16.807,140.2,140.2,0,0,1,25.379-10.434A83.457,83.457,0,0,1-11023.214,0,51.718,51.718,0,0,1-10997,6.619a50.637,50.637,0,0,1,17.032,16.449A80.312,80.312,0,0,1-10969.651,48a146.632,146.632,0,0,1,3.77,32.2,249.724,249.724,0,0,1-2.606,38.257,377.028,377.028,0,0,1-8.811,43.106c-.705,2.683-1.466,5.468-2.261,8.278h-7.392a320.639,320.639,0,0,0,6.27-34.747,218.983,218.983,0,0,0,1.6-34.745,132.276,132.276,0,0,0-4.224-29.375,75.675,75.675,0,0,0-10.187-22.9,50.053,50.053,0,0,0-16.277-15.335,51.515,51.515,0,0,0-26.121-6.61c-13.427,0-28.535,4.164-44.906,12.368-16.093,8.062-32.978,19.809-50.186,34.916a425.71,425.71,0,0,0-51.116,54.2c-10.573,13.236-20.834,27.443-30.5,42.226Z" transform="translate(12503 1987.161)" fill="url(#linear-gradient)"/>
  </g>
</svg>
