<svg xmlns="http://www.w3.org/2000/svg" xmlns:xlink="http://www.w3.org/1999/xlink" width="527.327" height="522" viewBox="0 0 527.327 522">
  <defs>
    <linearGradient id="linear-gradient" x1="0.5" x2="0.5" y2="1" gradientUnits="objectBoundingBox">
      <stop offset="0" stop-color="#ffbdff"/>
      <stop offset="0.1" stop-color="#f5bfff"/>
      <stop offset="0.26" stop-color="#dbc4ff"/>
      <stop offset="0.47" stop-color="#b0ccff"/>
      <stop offset="0.72" stop-color="#75d8ff"/>
      <stop offset="0.99" stop-color="#2ae6ff"/>
      <stop offset="1" stop-color="#29e6ff"/>
    </linearGradient>
    <linearGradient id="linear-gradient-3" x1="0.937" y1="-0.026" x2="-0.136" y2="1.209" gradientUnits="objectBoundingBox">
      <stop offset="0" stop-color="#ffbdff"/>
      <stop offset="0.1" stop-color="#f5bfff"/>
      <stop offset="0.26" stop-color="#dbc4ff"/>
      <stop offset="0.47" stop-color="#b0ccff"/>
      <stop offset="0.72" stop-color="#75d8ff"/>
      <stop offset="0.909" stop-color="#2ae6ff"/>
      <stop offset="1" stop-color="#29e6ff"/>
    </linearGradient>
    <linearGradient id="linear-gradient-4" x1="0.695" y1="-0.288" x2="0.5" y2="1" gradientUnits="objectBoundingBox">
      <stop offset="0" stop-color="#ff6a91"/>
      <stop offset="0.2" stop-color="#ff6e94"/>
      <stop offset="0.37" stop-color="#ff799f"/>
      <stop offset="0.55" stop-color="#ff8cb0"/>
      <stop offset="0.72" stop-color="#ffa7c8"/>
      <stop offset="0.89" stop-color="#ffc9e7"/>
      <stop offset="1" stop-color="#ffe3ff"/>
    </linearGradient>
    <linearGradient id="linear-gradient-5" y1="0.5" x2="1.751" y2="-0.603" gradientUnits="objectBoundingBox">
      <stop offset="0" stop-color="#ffdeff"/>
      <stop offset="0.06" stop-color="#e3dfff"/>
      <stop offset="0.19" stop-color="#b2e1ff"/>
      <stop offset="0.32" stop-color="#88e2ff"/>
      <stop offset="0.45" stop-color="#66e4ff"/>
      <stop offset="0.58" stop-color="#4be5ff"/>
      <stop offset="0.71" stop-color="#38e5ff"/>
      <stop offset="0.85" stop-color="#2de6ff"/>
      <stop offset="1" stop-color="#29e6ff"/>
    </linearGradient>
    <linearGradient id="linear-gradient-6" x1="0" y1="0.5" x2="3.816" y2="-0.801" xlink:href="#linear-gradient-5"/>
    <linearGradient id="linear-gradient-7" x1="1.325" y1="-0.188" x2="0.166" y2="0.892" xlink:href="#linear-gradient-5"/>
  </defs>
  <g id="Group_251" data-name="Group 251" transform="translate(-205 -811)">
    <g id="web_back_DESIGN" data-name="web back DESIGN" transform="translate(204.596 810.996)">
      <g id="Ellipse_63" data-name="Ellipse 63" transform="translate(108.372 103.026)" fill="none" stroke="#d5dfeb" stroke-width="1">
        <ellipse cx="157.978" cy="157.978" rx="157.978" ry="157.978" stroke="none"/>
        <ellipse cx="157.978" cy="157.978" rx="157.478" ry="157.478" fill="none"/>
      </g>
      <g id="Group_219" data-name="Group 219" transform="translate(0 0)">
        <g id="Ellipse_64" data-name="Ellipse 64" transform="translate(5.404 0.004)" fill="none" stroke="#d5dfeb" stroke-width="1">
          <circle cx="261" cy="261" r="261" stroke="none"/>
          <circle cx="261" cy="261" r="260.5" fill="none"/>
        </g>
        <circle id="Ellipse_65" data-name="Ellipse 65" cx="10" cy="10" r="10" transform="translate(437.404 64.004)" fill="url(#linear-gradient)"/>
        <circle id="Ellipse_66" data-name="Ellipse 66" cx="19.5" cy="19.5" r="19.5" transform="translate(0.404 325.004)" fill="url(#linear-gradient)"/>
      </g>
    </g>
    <path id="Path_1411" data-name="Path 1411" d="M711.289,77.572a1.537,1.537,0,0,0,0-3.072A1.537,1.537,0,0,0,711.289,77.572Z" transform="translate(14.669 811.667)" fill="#eaebee"/>
    <g id="phone_DESIGN" data-name="phone DESIGN" transform="translate(288.329 840.39)">
      <path id="Path_1412" data-name="Path 1412" d="M146.075,26.422v205.7a26.422,26.422,0,0,1-26.422,26.422H26.422A26.422,26.422,0,0,1,0,232.125V26.422A26.422,26.422,0,0,1,26.422,0H43.24V5.26h59.6V0h16.793A26.422,26.422,0,0,1,146.075,26.422Z" transform="translate(0 0)" fill="url(#linear-gradient-3)"/>
      <rect id="Rectangle_179" data-name="Rectangle 179" width="64.512" height="3.003" rx="1.5" transform="translate(40.782 244.956)" fill="#f0deff"/>
    </g>
    <g id="mobile_content_DESIGN" data-name="mobile content DESIGN" transform="translate(347.52 880.981)">
      <rect id="Rectangle_173" data-name="Rectangle 173" width="137.326" height="58.066" transform="translate(0 0)" opacity="0.72" fill="url(#linear-gradient-4)"/>
      <rect id="Rectangle_174" data-name="Rectangle 174" width="137.326" height="9.794" transform="translate(0 68.205)" fill="url(#linear-gradient-5)"/>
      <rect id="Rectangle_175" data-name="Rectangle 175" width="68.66" height="4.897" transform="translate(57.391 18.121)" fill="#fff"/>
      <rect id="Rectangle_176" data-name="Rectangle 176" width="42.465" height="4.897" transform="translate(57.391 26.588)" fill="#fff"/>
      <rect id="Rectangle_177" data-name="Rectangle 177" width="68.66" height="4.897" transform="translate(57.391 35.049)" fill="#fff"/>
      <rect id="Rectangle_178" data-name="Rectangle 178" width="76.347" height="9.794" transform="translate(0 83.794)" fill="url(#linear-gradient-6)"/>
      <path id="Path_1413" data-name="Path 1413" d="M148.382,101.825a18.311,18.311,0,0,1-32.106,12.05h0a18.311,18.311,0,1,1,32.105-12.043Z" transform="translate(-102.279 -72.792)" fill="#fff"/>
      <path id="Path_1414" data-name="Path 1414" d="M143.465,112.149a14,14,0,0,0-4.762-2.98,16.983,16.983,0,0,0-11.675,0,13.746,13.746,0,0,0-7.988,7.693h0a18.3,18.3,0,0,0,27.583,0A14.047,14.047,0,0,0,143.465,112.149ZM138.18,93.494a7.515,7.515,0,1,0,2.194,5.3A7.232,7.232,0,0,0,138.18,93.494Z" transform="translate(-105.086 -75.785)" fill="url(#linear-gradient-7)"/>
    </g>
    <g id="callout_DESIGN" data-name="callout DESIGN" transform="translate(454.232 915.268)">
      <path id="Path_1415" data-name="Path 1415" d="M547.594,229.987V459.315a29.918,29.918,0,0,1-29.918,29.918H299.906A29.918,29.918,0,0,1,270,459.315V229.987a29.918,29.918,0,0,1,29.918-29.918H517.676A29.918,29.918,0,0,1,547.594,229.987Z" transform="translate(-270 -121.86)" fill="#eaf7ff" stroke="#80d4ff" stroke-width="1"/>
      <g id="Group_218" data-name="Group 218" transform="translate(32.811 110.081)">
        <path id="Path_1418" data-name="Path 1418" d="M466.046,594.49a3.9,3.9,0,0,0,1.415,1.545,4.419,4.419,0,0,0,2.435.614,3.959,3.959,0,0,0,2.478-.76,2.584,2.584,0,0,0,.993-2.189,2.665,2.665,0,0,0-.73-2.013,7,7,0,0,0-2.07-1.282l-.541-.235a4.511,4.511,0,0,1-.977-.541.955.955,0,0,1-.043-1.353.988.988,0,0,1,.731-.271,1.419,1.419,0,0,1,.787.206,1.8,1.8,0,0,1,.584.7l1.623-1.082a3.184,3.184,0,0,0-1.255-1.283,3.74,3.74,0,0,0-1.751-.381,3.116,3.116,0,0,0-2.235.79,2.613,2.613,0,0,0-.831,1.983,2.72,2.72,0,0,0,.685,1.986,5.718,5.718,0,0,0,1.826,1.2l.525.233a5.927,5.927,0,0,1,1.136.571.933.933,0,0,1,.409.831.876.876,0,0,1-.392.73,1.7,1.7,0,0,1-1.036.292,2.042,2.042,0,0,1-1.269-.365,3.04,3.04,0,0,1-.812-.92Zm-7.443.233a3.728,3.728,0,0,0,1.139,1.353,3.788,3.788,0,0,0,4.288-.206,3.056,3.056,0,0,0,.877-2.408v-7.181H462.8v7.148a1.413,1.413,0,0,1-.306,1.066,1.2,1.2,0,0,1-.831.271,1.047,1.047,0,0,1-.812-.322,3.785,3.785,0,0,1-.528-.76ZM457.71,576h12.414a5,5,0,0,1,5,5v12.413a5,5,0,0,1-5,5H457.71a5,5,0,0,1-5-5V580.986A5,5,0,0,1,457.71,576Z" transform="translate(-412.639 -378.542)" fill="#80d4ff"/>
        <path id="Path_1419" data-name="Path 1419" d="M354.2,580.8l.068-.725H341.871l.065.725.6,6.788H351.1l-.271,3.231-2.771.725-2.768-.725-.2-1.978h-2.435l.344,3.891,5.065,1.4,5.079-1.383v-.463l.593-6.461.065-.725h-9.031l-.2-2.505h9.494v-.528ZM338.18,576h19.776l-1.78,20.173-8.117,2.24-8.117-2.24Z" transform="translate(-329.097 -378.542)" fill="#80d4ff"/>
        <path id="Path_1420" data-name="Path 1420" d="M589.46,581.1h18.729l-1.7,8.929q-.027.23-1.586,8.571l-10.041,3.517L586.17,598.6l.852-4.667h3.669l-.352,1.967,5.254,2.083L601.7,595.9l.852-4.4H587.52l.736-3.929h15.03l.5-2.554H588.754Z" transform="translate(-509.99 -382.262)" fill="#80d4ff"/>
        <rect id="Rectangle_180" data-name="Rectangle 180" width="208.578" height="4.897" transform="translate(2.889 78.38)" fill="#80d4ff"/>
        <rect id="Rectangle_181" data-name="Rectangle 181" width="208.578" height="4.897" transform="translate(2.889 90.651)" fill="#80d4ff"/>
        <rect id="Rectangle_182" data-name="Rectangle 182" width="156.534" height="4.897" transform="translate(2.889 102.922)" fill="#80d4ff"/>
        <rect id="Rectangle_328" data-name="Rectangle 328" width="156.534" height="4.897" transform="translate(2.889 114.922)" fill="#80d4ff"/>
        <rect id="Rectangle_329" data-name="Rectangle 329" width="156.534" height="4.897" transform="translate(2.889 126.922)" fill="#80d4ff"/>
        <path id="Path_1421" data-name="Path 1421" d="M644.572,319.315a18.311,18.311,0,0,1-32.106,12.05h0a18.311,18.311,0,1,1,32.106-12.043Z" transform="translate(-433.104 -301.011)" fill="#32e5ff"/>
        <path id="Path_1422" data-name="Path 1422" d="M639.675,329.651a14,14,0,0,0-4.762-2.98,16.983,16.983,0,0,0-11.675,0,13.745,13.745,0,0,0-7.988,7.693h0a18.3,18.3,0,0,0,27.583,0A14.043,14.043,0,0,0,639.675,329.651ZM634.39,311a7.515,7.515,0,1,0,2.212,5.3,7.232,7.232,0,0,0-2.224-5.3Z" transform="translate(-435.919 -304.016)" fill="#fff"/>
      </g>
    </g>
  </g>
</svg>
