<svg xmlns="http://www.w3.org/2000/svg" xmlns:xlink="http://www.w3.org/1999/xlink" width="72" height="72" viewBox="0 0 72 72"><defs><linearGradient id="a" x1="0.5" x2="0.5" y2="1" gradientUnits="objectBoundingBox"><stop offset="0" stop-color="#ffbdff"/><stop offset="0.1" stop-color="#f5bfff"/><stop offset="0.26" stop-color="#dbc4ff"/><stop offset="0.47" stop-color="#b0ccff"/><stop offset="0.72" stop-color="#75d8ff"/><stop offset="0.909" stop-color="#2ae6ff"/><stop offset="1" stop-color="#29e6ff"/></linearGradient></defs><g transform="translate(-214 -3817)"><circle cx="36" cy="36" r="36" transform="translate(214 3817)" fill="url(#a)"/><circle cx="11" cy="11" r="11" transform="translate(239 3842)" fill="#fafcff"/><g transform="translate(221 3840.446)" fill="none"><path d="M29,0C45.016,0,58,12.3,58,12.554S45.016,25.108,29,25.108.115,13.045,0,12.554,12.984,0,29,0Z" stroke="none"/><path d="M 29 4 C 25.98973274230957 4 22.84995651245117 4.492521286010742 19.66787719726562 5.463876724243164 C 16.98676681518555 6.282321929931641 14.27790069580078 7.437221527099609 11.61651229858398 8.896520614624023 C 9.356468200683594 10.1357536315918 7.434780120849609 11.43486309051514 5.993827819824219 12.51664352416992 C 7.384307861328125 13.56875991821289 9.237209320068359 14.8385066986084 11.47219848632812 16.08765411376953 C 14.14469909667969 17.58132171630859 16.86463165283203 18.76348876953125 19.55645370483398 19.60131072998047 C 22.76944351196289 20.60134315490723 25.94671058654785 21.1083984375 29 21.1083984375 C 32.05313110351562 21.1083984375 35.23978805541992 20.58964347839355 38.471435546875 19.56655502319336 C 41.17043304443359 18.71209907531738 43.90605545043945 17.50667762756348 46.60232162475586 15.98378849029541 C 48.69522857666016 14.80168437957764 50.48028182983398 13.58503341674805 51.85985946655273 12.55419921875 C 50.48028182983398 11.52336502075195 48.69522857666016 10.30671405792236 46.60232162475586 9.12460994720459 C 43.90605545043945 7.601720809936523 41.17043304443359 6.396299362182617 38.471435546875 5.541843414306641 C 35.23978805541992 4.518754959106445 32.05313110351562 4 29 4 M 29 0 C 45.01625442504883 0 58 12.30461025238037 58 12.55419921875 C 58 12.80378818511963 45.01625442504883 25.1083984375 29 25.1083984375 C 12.98374557495117 25.1083984375 0.1152229309082031 13.04497718811035 0 12.55419921875 C -0.1152229309082031 12.06342124938965 12.98374557495117 0 29 0 Z" stroke="none" fill="#fff"/></g></g></svg>