<svg xmlns="http://www.w3.org/2000/svg" xmlns:xlink="http://www.w3.org/1999/xlink" width="72" height="72" viewBox="0 0 72 72"><defs><linearGradient id="a" x1="0.5" x2="0.5" y2="1" gradientUnits="objectBoundingBox"><stop offset="0" stop-color="#ffbdff"/><stop offset="0.1" stop-color="#f5bfff"/><stop offset="0.26" stop-color="#dbc4ff"/><stop offset="0.47" stop-color="#b0ccff"/><stop offset="0.72" stop-color="#75d8ff"/><stop offset="0.909" stop-color="#2ae6ff"/><stop offset="1" stop-color="#29e6ff"/></linearGradient></defs><g transform="translate(-1230 -3104)"><circle cx="36" cy="36" r="36" transform="translate(1230 3104)" fill="url(#a)"/><path d="M-11359,56a27.818,27.818,0,0,1-10.9-2.2,27.911,27.911,0,0,1-8.9-6,27.924,27.924,0,0,1-6-8.9A27.8,27.8,0,0,1-11387,28a27.8,27.8,0,0,1,2.2-10.9,27.926,27.926,0,0,1,6-8.9,27.911,27.911,0,0,1,8.9-6A27.814,27.814,0,0,1-11359,0a27.828,27.828,0,0,1,10.9,2.2,27.881,27.881,0,0,1,8.9,6,27.934,27.934,0,0,1,6,8.9A27.837,27.837,0,0,1-11331,28a27.835,27.835,0,0,1-2.2,10.9,27.93,27.93,0,0,1-6,8.9,27.881,27.881,0,0,1-8.9,6A27.832,27.832,0,0,1-11359,56Zm0-50.579a22.436,22.436,0,0,0-8.789,1.774,22.49,22.49,0,0,0-7.178,4.839,22.485,22.485,0,0,0-4.84,7.177,22.436,22.436,0,0,0-1.773,8.79,22.433,22.433,0,0,0,1.773,8.789,22.488,22.488,0,0,0,4.84,7.177,22.491,22.491,0,0,0,7.178,4.839,22.432,22.432,0,0,0,8.789,1.775,22.447,22.447,0,0,0,8.789-1.775,22.527,22.527,0,0,0,7.178-4.839,22.494,22.494,0,0,0,4.838-7.177A22.435,22.435,0,0,0-11336.42,28a22.438,22.438,0,0,0-1.775-8.79,22.491,22.491,0,0,0-4.838-7.177,22.526,22.526,0,0,0-7.178-4.839A22.45,22.45,0,0,0-11359,5.421Z" transform="translate(12625 3112)" fill="#fafcff"/></g></svg>