<svg xmlns="http://www.w3.org/2000/svg" xmlns:xlink="http://www.w3.org/1999/xlink" width="78.954" height="82.487" viewBox="0 0 78.954 82.487"><defs><linearGradient id="a" x1="0.5" x2="0.5" y2="1" gradientUnits="objectBoundingBox"><stop offset="0" stop-color="#ffbdff"/><stop offset="0.1" stop-color="#f5bfff"/><stop offset="0.26" stop-color="#dbc4ff"/><stop offset="0.47" stop-color="#b0ccff"/><stop offset="0.72" stop-color="#75d8ff"/><stop offset="0.909" stop-color="#2ae6ff"/><stop offset="1" stop-color="#29e6ff"/></linearGradient></defs><g transform="translate(-1098.449 -5778.544)"><path d="M-6627.5,59.76H-6673V0h45.5V7.457h-21.773V40h21.773V59.759Z" transform="translate(7773.949 5798.771)" fill="none" stroke="#0fb7ff" stroke-width="5"/><rect width="50" height="60" transform="translate(1124 5782)" fill="#fff"/><path d="M26.057,16.3V11.6h-4.7v4.7Zm4.7,4.7v-4.7h-4.7v4.7Zm-4.7,4.7v-4.7h-4.7v4.7Zm4.7,4.7v-4.7h-4.7v4.7ZM56.441,16.148A8.539,8.539,0,0,1,58.2,18.937a8.469,8.469,0,0,1,.734,3.229V64.441a3.508,3.508,0,0,1-3.523,3.523H6.094a3.4,3.4,0,0,1-2.5-1.028,3.4,3.4,0,0,1-1.028-2.5V5.726A3.4,3.4,0,0,1,3.6,3.231,3.4,3.4,0,0,1,6.094,2.2h32.88a8.471,8.471,0,0,1,3.229.734A8.539,8.539,0,0,1,44.992,4.7ZM40.148,7.194v13.8h13.8a4.009,4.009,0,0,0-.807-1.5L41.653,8a4.008,4.008,0,0,0-1.5-.807ZM54.24,63.267V25.689H38.974a3.508,3.508,0,0,1-3.523-3.523V6.9h-4.7v4.7h-4.7V6.9H7.268V63.267H54.24ZM31.231,36.808l3.927,12.807a6.71,6.71,0,0,1,.294,1.908A6.077,6.077,0,0,1,32.79,56.57a10.9,10.9,0,0,1-6.734,2,10.9,10.9,0,0,1-6.734-2,6.078,6.078,0,0,1-2.661-5.046,6.709,6.709,0,0,1,.294-1.908q.771-2.312,4.4-14.532v-4.7h4.7v4.7h2.9a2.292,2.292,0,0,1,1.431.477,2.337,2.337,0,0,1,.844,1.248ZM26.057,53.872a7.278,7.278,0,0,0,3.321-.7q1.376-.7,1.376-1.651t-1.376-1.651a7.279,7.279,0,0,0-3.321-.7,7.279,7.279,0,0,0-3.321.7q-1.376.7-1.376,1.651t1.376,1.651A7.278,7.278,0,0,0,26.057,53.872Z" transform="translate(1118.467 5776.34)" fill="url(#a)"/></g></svg>