<svg xmlns="http://www.w3.org/2000/svg" width="274.404" height="71.386" viewBox="0 0 274.404 71.386">
  <g id="Group_225" data-name="Group 225" transform="translate(-20436 -697.112)">
    <path id="Path_2327" data-name="Path 2327" d="M60.476,28.118,60.19,27.6l.235-.537c.118-.252,2.435-5.694-1.78-8.18l-.907-.537.453-.957a5.358,5.358,0,0,0,0-3.964,9.338,9.338,0,0,0-5.559-4.736L52.078,8.4l-.134-.588c0-.218-1.243-5.324-7.995-6H43.68l-.151-.134Q42.781,1.332,42,1.06A6.718,6.718,0,0,0,40.724,5.8,3.359,3.359,0,0,0,42,7.811l.621.37V8.92L42,14.379,39.935,16.8a1.932,1.932,0,0,1,.1.621,2.15,2.15,0,1,1-2.133-2.15h.286l1.545-1.831.453-4.132a5.576,5.576,0,0,1-1.68-2.956A8.4,8.4,0,0,1,39.733.337,7.844,7.844,0,0,0,35.282.3a3.661,3.661,0,0,0-2.251,2.183,2.234,2.234,0,0,1-4.249,0A3.7,3.7,0,0,0,26.582.3a10.078,10.078,0,0,0-6.416.638c0,.655-.6,5.14,1.377,7.575a3.964,3.964,0,0,0,2.15,1.377,4.9,4.9,0,0,1,.235-1.008,4.048,4.048,0,0,1,1.8-2.083V5.9l-2.671-.991.806-2.167,4.283,1.68L27.959,8.4l-.773.218a1.831,1.831,0,0,0-1.075,1.058,5.039,5.039,0,0,0,.773,3.645h.6a3.7,3.7,0,1,1-2.637,1.125,11.992,11.992,0,0,1-.823-2.1,6.483,6.483,0,0,1-4.149-2.335,12.345,12.345,0,0,1-2.066-8.129c-6.718.739-7.844,5.929-7.86,5.979L9.837,8.4l-.554.235a9.439,9.439,0,0,0-5.576,4.8,5.475,5.475,0,0,0,0,3.981l.437.941-.89.537C-1,21.382,1.372,26.875,1.472,27.059l.235.537-.3.521a9.137,9.137,0,0,0,.286,10.212H9.618l.3-2.7a7.457,7.457,0,0,1-5.543-4.7,9.406,9.406,0,0,1,.89-8.247l1.9,1.293a7.121,7.121,0,0,0-.638,6.13,5.425,5.425,0,0,0,4.686,3.359h1.243l-.521,4.871h7.995V36.112a4.182,4.182,0,0,1-2.351-2.284,3.829,3.829,0,0,1,.521-3.359.252.252,0,0,0,0-.336,9.523,9.523,0,0,1-2.452-2.822l-2.956,1.478v.1a2.15,2.15,0,1,1-2.15-2.15,2,2,0,0,1,.789.151l3.645-1.831a8.5,8.5,0,0,1,1.293-4.35,11.555,11.555,0,0,0-3.594,2.8l-.655.722-.823-.521c-1.965-1.26-1.68-4.233-1.461-5.744A10.7,10.7,0,0,1,6.948,14.4l1.041-.487,1.041-.47a6.5,6.5,0,0,0,2.419,2.822l.991.37-.286,1.025a7.525,7.525,0,0,0-.185,3.359,10.229,10.229,0,0,1,4.35-2.6,2.015,2.015,0,0,1,2.1.857,2.083,2.083,0,0,1,0,2.3,5.8,5.8,0,0,0-1.176,3.981,6.181,6.181,0,0,0,2.2,2.906,2.587,2.587,0,0,1,.571,3.359,1.68,1.68,0,0,0-.319,1.344,2.7,2.7,0,0,0,1.68,1.192l.773.269V38.43h7.071a12.4,12.4,0,0,1,2.049-8.2,6.332,6.332,0,0,1,3.04-2.066,3.661,3.661,0,1,1,.269,2.351,3.9,3.9,0,0,0-1.512,1.159A10.262,10.262,0,0,0,31.6,38.4H49.979l-.537-4.8H50.7a5.559,5.559,0,0,0,4.2-2.435l-7.121-3.141.941-2.183,7.021,3.09a7.34,7.34,0,0,0-.974-5.039l1.9-1.276a9.406,9.406,0,0,1,.89,8.247,7.457,7.457,0,0,1-5.543,4.7l.3,2.7h7.86a9.12,9.12,0,0,0,.3-10.145Zm-6.55-12.076a2.133,2.133,0,1,1,1.519-.619,2.15,2.15,0,0,1-1.519.619Z" transform="translate(20436.016 697.114)" fill="#2da3dc"/>
    <path id="Path_2328" data-name="Path 2328" d="M32.162,8.18a.151.151,0,0,0-.151.168c0,.168.3.168.3,0a.151.151,0,0,0-.151-.168Z" transform="translate(20457.779 702.675)" fill="#2da3dc"/>
    <path id="Path_2329" data-name="Path 2329" d="M24.495,17.777a1.377,1.377,0,1,0-1.377,1.377A1.377,1.377,0,0,0,24.495,17.777Z" transform="translate(20450.801 708.261)" fill="#2da3dc"/>
    <path id="Path_2330" data-name="Path 2330" d="M22.46,10.364c0,.134.185.168.269.1l-.218-.185a.084.084,0,0,0-.05.084Z" transform="translate(20451.291 704.102)" fill="#2da3dc"/>
    <path id="Path_2331" data-name="Path 2331" d="M18.245,10.647a1.377,1.377,0,1,0-1.377,1.377A1.377,1.377,0,0,0,18.245,10.647Z" transform="translate(20446.553 703.415)" fill="#2da3dc"/>
    <path id="Path_2332" data-name="Path 2332" d="M6.16,17.281c0,.168.3.168.3,0a.151.151,0,0,0-.3,0Z" transform="translate(20440.213 708.757)" fill="#2da3dc"/>
    <path id="Path_2333" data-name="Path 2333" d="M59.238,25.49v1.461a.974.974,0,0,1-.974.974H52.822l-.218.857a22.439,22.439,0,0,1-2.5,6l-.47.773L53.494,39.4a.974.974,0,0,1,.286.689.907.907,0,0,1-.286.672l-5.156,5.156a.974.974,0,0,1-1.36,0L43.13,42.051l-.773.47a22.439,22.439,0,0,1-6.046,2.5l-.857.218v5.492a.974.974,0,0,1-.974.974H27.208a.974.974,0,0,1-.974-.974V45.293l-.857-.218a22.439,22.439,0,0,1-6.046-2.5l-.773-.47-3.846,3.863a.974.974,0,0,1-1.36,0L8.2,40.808a.974.974,0,0,1,0-1.36L12.058,35.6l-.4-.823a22.439,22.439,0,0,1-2.5-6.047l-.218-.857H3.425a.974.974,0,0,1-.974-.974V25.44H.15V26.9a3.359,3.359,0,0,0,3.359,3.275H7.087a25.009,25.009,0,0,0,2.083,5.039l-2.553,2.6a3.258,3.258,0,0,0,0,4.619l5.039,5.156a3.258,3.258,0,0,0,2.3.957,3.359,3.359,0,0,0,2.318-.957l2.587-2.6A25.009,25.009,0,0,0,23.9,47.073v3.661a3.359,3.359,0,0,0,3.359,3.359h7.273a3.359,3.359,0,0,0,3.275-3.359V47.073a25.009,25.009,0,0,0,5.039-2.083l2.587,2.6a3.359,3.359,0,0,0,2.318.957,3.258,3.258,0,0,0,2.3-.957l5.156-5.156a3.359,3.359,0,0,0,0-4.619l-2.6-2.587a25.009,25.009,0,0,0,2.083-5.039h3.661a3.359,3.359,0,0,0,3.359-3.275V25.457Z" transform="translate(20436.129 714.404)" fill="#fbb540"/>
    <path id="Path_2334" data-name="Path 2334" d="M31.711,25.47H12.11a11.085,11.085,0,0,0,5.274,6.718,10.884,10.884,0,0,0,14.327-3.359,10.8,10.8,0,0,0,1.68-3.359Z" transform="translate(20444.256 714.425)" fill="#2da3dc"/>
    <path id="Path_2335" data-name="Path 2335" d="M51.233,32.925c-.588,0-.773-.336-.773-.957V8.907c0-.655.218-.957.873-.957h8.012c6.718,0,8.952,2.906,8.952,6V26.929c0,3.09-2.318,6-8.952,6Zm4.182-20.86v16.8h3.93c2.486,0,4-.924,4-2.755V14.752c0-1.831-1.512-2.755-4-2.755Z" transform="translate(20470.32 702.518)" fill="#2da3dc"/>
    <path id="Path_2336" data-name="Path 2336" d="M68.464,11.672c0,.621-.218.873-.84.873H64.567c-.655,0-.907-.252-.907-.873V8.5c0-.672.252-.957.907-.957H67.59c.621,0,.84.286.84.957Zm0,20.592c0,.655-.218.957-.84.957H64.567c-.655,0-.907-.3-.907-.957V15.837c0-.672.252-.924.907-.924H67.59c.621,0,.84.252.84.924Z" transform="translate(20479.289 702.24)" fill="#2da3dc"/>
    <path id="Path_2337" data-name="Path 2337" d="M68.915,25.243V17.181a4.8,4.8,0,0,1,5.324-5.358,8.952,8.952,0,0,1,5.879,2v-.907c0-.672.218-.924.89-.924h2.822c.621,0,.873.252.873.924V32.3c0,3.258-2.452,5.391-7.844,5.391H71.736c-.655,0-.907-.218-.907-.89V34.682c0-.672.252-.957.907-.957h5.19c2.049,0,3.04-.621,3.04-1.982v-3.09a9.355,9.355,0,0,1-5.727,1.965,4.82,4.82,0,0,1-5.324-5.375Zm4.8-.773c0,.991.3,1.948,2.032,1.948a7.491,7.491,0,0,0,4.216-1.68V17.6a7.491,7.491,0,0,0-4.216-1.68c-1.68,0-2.032.957-2.032,1.9Z" transform="translate(20482.836 705.128)" fill="#2da3dc"/>
    <path id="Path_2338" data-name="Path 2338" d="M85.724,11.672c0,.621-.218.873-.84.873h-3.04c-.672,0-.924-.252-.924-.873V8.5c0-.672.252-.957.924-.957h3.04c.621,0,.84.286.84.957Zm0,20.592c0,.655-.218.957-.84.957h-3.04c-.672,0-.924-.3-.924-.957V15.837c0-.672.252-.924.924-.924h3.04c.621,0,.84.252.84.924Z" transform="translate(20491.02 702.24)" fill="#2da3dc"/>
    <path id="Path_2339" data-name="Path 2339" d="M96.253,13.814c.621,0,.924.235.924.857v2c0,.655-.3.924-.924.924H92.894v8.4c0,1.36.89,2,2.939,2h.806c.672,0,.924.252.924.907V31.03c0,.655-.252.924-.924.924H95.094c-5.375.034-7.054-1.814-7.054-5.408V17.594H86.36c-.621,0-.89-.269-.89-.924V14.839c0-.621.269-.806.89-.89l1.68-.134h0V10.254c0-.672.252-.924.907-.924H92c.655,0,.873.252.873.924v3.561Z" transform="translate(20494.113 703.456)" fill="#2da3dc"/>
    <path id="Path_2340" data-name="Path 2340" d="M94.571,17.034c0-3.258,2.167-5.274,7.407-5.274s7.39,2.015,7.39,5.274V29.379c0,.655-.269.957-.89.957h-2.721c-.655,0-.806-.3-.873-.957v-.773a8.4,8.4,0,0,1-5.543,2.032c-3.661,0-5.341-2.183-5.341-4.6v-1.68c0-2.452,1.881-4.619,5.509-4.619h5.039V17.387c0-1.327-.621-2.049-2.754-2.049s-2.755.6-2.755,1.864v.269c0,.655-.269.907-.89.907h-2.7c-.655,0-.873-.252-.873-.907Zm10.077,8.2v-2.1h-4.132c-1.428,0-1.68.705-1.68,1.68v.571c0,1.109.739,1.444,1.831,1.444a7.172,7.172,0,0,0,3.964-1.6Z" transform="translate(20499.908 705.108)" fill="#2da3dc"/>
    <path id="Path_2341" data-name="Path 2341" d="M110.424,32.247c0,.655-.218.957-.84.957h-3.057c-.655,0-.907-.3-.907-.957V8.5c0-.672.252-.957.907-.957h3.09c.621,0,.84.286.84.957Z" transform="translate(20507.805 702.24)" fill="#2da3dc"/>
    <path id="Path_2342" data-name="Path 2342" d="M127.545,14.414c0-1.8-1.209-2.637-3.561-2.637s-3.594.84-3.594,2.637v.554a2.032,2.032,0,0,0,1.512,1.982l6.433,2.284a5.593,5.593,0,0,1,4.333,5.274v2.838c0,3.074-2.167,5.979-8.734,5.979s-8.784-2.906-8.784-5.979V25.029c0-.655.252-.957.89-.957h3.074c.672,0,.89.3.89.957v1.68c0,1.814,1.394,2.654,3.88,2.654s3.9-.84,3.9-2.654V25.533c0-1.495-1.461-2.083-3.124-2.7L118.979,20.7a5.24,5.24,0,0,1-3.359-4.736v-2.2c0-3.09,1.9-5.979,8.4-5.979s8.4,2.889,8.4,5.979v1.512c0,.621-.269.907-.924.907h-3.158c-.621,0-.84-.286-.84-.907Z" transform="translate(20514.281 702.403)" fill="#2da3dc"/>
    <path id="Path_2343" data-name="Path 2343" d="M143.682,32.28c.3.437.185.924-.437.924h-3.359a1.68,1.68,0,0,1-1.327-.924l-5.14-7.491h-.806V32.28c0,.621-.218.924-.84.924h-3.04c-.672,0-.924-.3-.924-.924V8.447c0-.621.252-.907.924-.907h3.04c.621,0,.84.286.84.907V21.161h.806l4.552-5.324a2.116,2.116,0,0,1,1.478-.924h3.359c.621,0,.806.47.437.924l-5.946,6.97Z" transform="translate(20522.885 702.24)" fill="#2da3dc"/>
    <path id="Path_2344" data-name="Path 2344" d="M143.444,11.672c0,.621-.218.873-.84.873h-3.057c-.655,0-.907-.252-.907-.873V8.5c0-.672.252-.957.907-.957H142.6c.621,0,.84.286.84.957Zm0,20.592c0,.655-.218.957-.84.957h-3.057c-.655,0-.907-.3-.907-.957V15.837c0-.672.252-.924.907-.924H142.6c.621,0,.84.252.84.924Z" transform="translate(20530.244 702.24)" fill="#2da3dc"/>
    <path id="Path_2345" data-name="Path 2345" d="M148.944,32.247c0,.655-.218.957-.84.957h-3.04c-.672,0-.924-.3-.924-.957V8.5c0-.672.252-.957.924-.957h3.04c.621,0,.84.286.84.957Z" transform="translate(20533.98 702.24)" fill="#2da3dc"/>
    <path id="Path_2346" data-name="Path 2346" d="M154.38,32.247c0,.655-.218.957-.84.957h-3.057c-.655,0-.924-.3-.924-.957V8.5c0-.672.269-.957.924-.957h3.057c.621,0,.84.286.84.957Z" transform="translate(20537.666 702.24)" fill="#2da3dc"/>
    <path id="Path_2347" data-name="Path 2347" d="M164.7,16.658c0-1.142-1.092-1.495-2.671-1.495s-2.654.353-2.654,1.495v.4a1.444,1.444,0,0,0,1.142,1.293l5.291,1.864c2.267.806,3.527,2.066,3.527,3.829v1.864c0,2.351-2.1,4.736-7.424,4.736s-7.34-2.385-7.34-4.736v-.84c0-.588.218-.84.84-.84h2.721c.621,0,.84.252.84.84v.554c0,1.142,1.293,1.545,2.939,1.545s2.973-.4,2.973-1.545v-.621c0-.621-.47-.957-1.68-1.394l-5.324-1.948a4.535,4.535,0,0,1-2.906-3.9V16.591c0-2.351,1.68-4.871,7.054-4.871s7,2.519,7,4.871V17.3c0,.621-.185.84-.84.84h-2.721c-.588,0-.806-.218-.806-.84Z" transform="translate(20541.07 705.08)" fill="#2da3dc"/>
    <path id="Path_2348" data-name="Path 2348" d="M50.582,43.512c-.134,0-.2,0-.2-.218v-15.8c0-.134,0-.218.2-.218h3.964c3.729,0,4.8,1.36,4.8,3.208v1.68a2.755,2.755,0,0,1-2.368,2.889c2.133.369,2.956,1.428,2.956,2.956v2.251c0,1.831-1.058,3.225-4.787,3.225Zm.6-15.536v6.718h3.678c2.788,0,3.7-1.125,3.7-2.6v-1.68c0-1.495-.924-2.57-4.014-2.57Zm0,7.457v7.39H55.15c3.074,0,4.014-1.109,4.014-2.637V38.019c0-1.478-.941-2.587-4.014-2.587Z" transform="translate(20470.266 715.648)" fill="#9097a0"/>
    <path id="Path_2349" data-name="Path 2349" d="M58.23,32.638c0-1.68.991-2.788,4.115-2.788s4.132,1.142,4.132,2.788v6.517c0,1.68-.991,2.788-4.132,2.788s-4.115-1.176-4.115-2.788Zm7.457,0c0-1.243-.773-2.183-3.359-2.183s-3.359.941-3.359,2.183v6.416c0,1.243.773,2.15,3.359,2.15s3.359-.907,3.359-2.15Z" transform="translate(20475.6 717.401)" fill="#9097a0"/>
    <path id="Path_2350" data-name="Path 2350" d="M65.38,32.638c0-1.68.974-2.788,4.115-2.788s4.115,1.142,4.115,2.788v6.517c0,1.68-.974,2.788-4.115,2.788s-4.115-1.176-4.115-2.788Zm7.441,0c0-1.243-.756-2.183-3.359-2.183S66.1,31.4,66.1,32.638v6.416c0,1.243.756,2.15,3.359,2.15s3.359-.907,3.359-2.15Z" transform="translate(20480.459 717.401)" fill="#9097a0"/>
    <path id="Path_2351" data-name="Path 2351" d="M77.447,31.176c.134,0,.2.084.2.218v.269c0,.134,0,.218-.2.218h-2.99V40.01c0,1.276.689,2.183,3.359,2.183h.319c.151,0,.218,0,.218.2v.269a.2.2,0,0,1-.218.218h-.4c-3.141,0-3.981-1.125-3.981-2.8V31.831H72.089a.2.2,0,0,1-.218-.218v-.218c0-.151,0-.218.218-.218h1.6V28.488c0-.151,0-.218.185-.218h.386c.151,0,.218,0,.218.218v2.687Z" transform="translate(20484.869 716.328)" fill="#9097a0"/>
    <path id="Path_2352" data-name="Path 2352" d="M86.906,40.509c0,1.831-.974,3.242-4.72,3.242S77.5,42.34,77.5,40.509V30.432c0-1.831.974-3.242,4.686-3.242s4.72,1.411,4.72,3.242v1.276c0,.134,0,.2-.218.2h-.369c-.151,0-.2,0-.2-.2V30.532c0-1.528-.84-2.62-3.913-2.62s-3.863,1.041-3.863,2.57v9.926c0,1.528.84,2.62,3.913,2.62s3.913-1.092,3.913-2.62V38.947c0-.134,0-.185.2-.185h.369c.151,0,.218,0,.218.185Z" transform="translate(20488.695 715.594)" fill="#9097a0"/>
    <path id="Path_2353" data-name="Path 2353" d="M85.05,32.638c0-1.68.873-2.788,4.014-2.788s4,1.142,4,2.788v8.9c0,.134,0,.218-.2.218h-.319a.2.2,0,0,1-.218-.218V40.465a6.718,6.718,0,0,1-4.165,1.478c-2.251,0-3.225-1.176-3.225-2.721v-1.26a2.553,2.553,0,0,1,2.8-2.7h4.585v-2.57c0-1.243-.638-2.183-3.208-2.183s-3.258.907-3.258,2.15v.437c0,.168,0,.218-.218.218h-.319c-.151,0-.218,0-.218-.218Zm7.222,7.1V35.93H87.855a1.965,1.965,0,0,0-2.183,2.1v1.125c0,1.209.789,2.1,2.587,2.1a6.366,6.366,0,0,0,4.048-1.512Z" transform="translate(20493.742 717.401)" fill="#9097a0"/>
    <path id="Path_2354" data-name="Path 2354" d="M92.848,30.085c.151,0,.185,0,.185.218v1.075a6.332,6.332,0,0,1,4.1-1.478,2.956,2.956,0,0,1,3.057,1.68,6.3,6.3,0,0,1,4.249-1.68c2.251,0,3.242,1.142,3.242,2.738V41.59c0,.134,0,.218-.2.218h-.37c-.168,0-.2,0-.2-.218v-8.9c0-1.243-.789-2.15-2.6-2.15a5.8,5.8,0,0,0-4,1.562,2.368,2.368,0,0,1,0,.588v8.835a.2.2,0,0,1-.218.218H99.7c-.151,0-.185,0-.185-.218V32.688c0-1.243-.789-2.15-2.6-2.15A5.8,5.8,0,0,0,93,32.05v9.473a.2.2,0,0,1-.218.218h-.386c-.134,0-.185,0-.185-.218V30.236c0-.151,0-.218.185-.218Z" transform="translate(20498.691 717.419)" fill="#9097a0"/>
    <path id="Path_2355" data-name="Path 2355" d="M104.5,30.075c.134,0,.185,0,.185.218v1.092A6.567,6.567,0,0,1,108.9,29.89c2.251,0,3.258,1.142,3.258,2.788v6.517c0,1.68-1.008,2.788-3.258,2.788a6.718,6.718,0,0,1-4.2-1.461v6.063c0,.151,0,.2-.218.2h-.369c-.151,0-.2,0-.2-.2V30.293c0-.151,0-.218.2-.218Zm6.92,2.671c0-1.192-.789-2.15-2.6-2.15a6.366,6.366,0,0,0-4.065,1.528v7.642a6.483,6.483,0,0,0,4.065,1.495c1.814,0,2.6-.941,2.6-2.167Z" transform="translate(20506.643 717.428)" fill="#9097a0"/>
  </g>
</svg>
