<svg xmlns="http://www.w3.org/2000/svg" xmlns:xlink="http://www.w3.org/1999/xlink" width="83.16" height="63.282" viewBox="0 0 83.16 63.282"><defs><linearGradient id="a" x1="0.5" x2="0.5" y2="1" gradientUnits="objectBoundingBox"><stop offset="0" stop-color="#ffbdff"/><stop offset="0.1" stop-color="#f5bfff"/><stop offset="0.26" stop-color="#dbc4ff"/><stop offset="0.47" stop-color="#b0ccff"/><stop offset="0.72" stop-color="#75d8ff"/><stop offset="0.909" stop-color="#2ae6ff"/><stop offset="1" stop-color="#29e6ff"/></linearGradient></defs><g transform="translate(-719.868 -5784.359)"><path d="M38.477,18.557V4.5H3.375V67.782H71.931V18.557ZM17.416,60.745H10.4V53.708h7.02Zm0-14.057H10.4V39.651h7.02Zm0-14.057H10.4V25.594h7.02Zm0-14.074H10.4V11.52h7.02ZM31.456,60.745h-7.02V53.708h7.02Zm0-14.057h-7.02V39.651h7.02Zm0-14.057h-7.02V25.594h7.02Zm0-14.074h-7.02V11.52h7.02ZM64.91,60.745H38.477V53.708H45.5v-7.02h-7.02V39.651H45.5V32.614h-7.02v-7.02H64.91Zm-6.2-28.114h-7.02v7.037h7.02Zm0,14.057h-7.02v7.037h7.02Z" transform="translate(731.098 5779.859)" fill="url(#a)"/><path d="M7392.368,3128.334v-35.282" transform="translate(-6670 2691.307)" fill="none" stroke="#0fb7ff" stroke-width="5"/></g></svg>