<svg xmlns="http://www.w3.org/2000/svg" xmlns:xlink="http://www.w3.org/1999/xlink" width="91.502" height="85.591" viewBox="0 0 91.502 85.591"><defs><linearGradient id="a" x1="0.135" y1="0.152" x2="0.356" y2="0.708" gradientUnits="objectBoundingBox"><stop offset="0" stop-color="#ffbdff"/><stop offset="0.1" stop-color="#f5bfff"/><stop offset="0.26" stop-color="#dbc4ff"/><stop offset="0.47" stop-color="#b0ccff"/><stop offset="0.72" stop-color="#75d8ff"/><stop offset="0.909" stop-color="#2ae6ff"/><stop offset="1" stop-color="#29e6ff"/></linearGradient></defs><g transform="translate(-1486.248 -5784.799)"><g transform="matrix(0.921, -0.391, 0.391, 0.921, 7584.137, 3186.673)" fill="none"><path d="M-6606,94a40.743,40.743,0,0,1-15.958-3.222,40.858,40.858,0,0,1-13.032-8.787,40.859,40.859,0,0,1-8.788-13.032A40.738,40.738,0,0,1-6647,53h82a40.739,40.739,0,0,1-3.222,15.959,40.857,40.857,0,0,1-8.787,13.032,40.86,40.86,0,0,1-13.032,8.787A40.744,40.744,0,0,1-6606,94Z" stroke="none"/><path d="M -6606.0009765625 88.99936676025391 C -6601.138671875 88.99936676025391 -6596.42431640625 88.04822540283203 -6591.9892578125 86.17230224609375 C -6587.703125 84.35959625244141 -6583.8525390625 81.76318359375 -6580.54443359375 78.45503234863281 C -6577.23681640625 75.14764404296875 -6574.640625 71.29721069335938 -6572.82763671875 67.01045989990234 C -6571.60205078125 64.11360931396484 -6570.771484375 61.09787750244141 -6570.3427734375 57.99930572509766 L -6641.65869140625 57.99930572509766 C -6641.22998046875 61.09793090820312 -6640.3994140625 64.11378479003906 -6639.173828125 67.01055145263672 C -6637.36083984375 71.29649353027344 -6634.76416015625 75.14694976806641 -6631.45556640625 78.45542907714844 C -6628.1484375 81.76274871826172 -6624.29833984375 84.35912322998047 -6620.01171875 86.17234802246094 C -6615.57666015625 88.04822540283203 -6610.86279296875 88.99936676025391 -6606.0009765625 88.99936676025391 M -6606.0009765625 93.99936676025391 C -6611.53515625 93.99936676025391 -6616.90478515625 92.91533660888672 -6621.95947265625 90.77736663818359 C -6626.841796875 88.71215057373047 -6631.2265625 85.75590515136719 -6634.9912109375 81.99070739746094 C -6638.75732421875 78.22502899169922 -6641.7138671875 73.84030914306641 -6643.77880859375 68.95835113525391 C -6645.9169921875 63.90384292602539 -6647.0009765625 58.53444290161133 -6647.0009765625 52.99930572509766 L -6565.00048828125 52.99930572509766 C -6565.00048828125 58.53562927246094 -6566.0849609375 63.90468978881836 -6568.22265625 68.95835113525391 C -6570.28759765625 73.84067535400391 -6573.24365234375 78.22537994384766 -6577.00927734375 81.99070739746094 C -6580.77490234375 85.75640106201172 -6585.15966796875 88.712646484375 -6590.04150390625 90.77736663818359 C -6595.09619140625 92.91533660888672 -6600.4658203125 93.99936676025391 -6606.0009765625 93.99936676025391 Z" stroke="none" fill="#0fb7ff"/></g><path d="M8167.431,3098.429l37.2,8.735,4.185,18.323h3.941l6.555,7.331-18.6,20.755-8.718-9.855,2.382-2.307-21.451-4.192s-8.1-35.19-6.569-38.789S8167.431,3098.429,8167.431,3098.429Z" transform="translate(-6673 2691)" fill="url(#a)"/><g transform="translate(1488 5784.627)"><path d="M18,37.861,37.861,18l8.512,8.512L26.512,46.373Z" transform="translate(13.373 13.373)" fill="none" stroke="#0fb7ff" stroke-linecap="round" stroke-linejoin="round" stroke-width="4"/><path d="M48.4,34.21,44.14,12.93,3,3l9.93,41.14L34.21,48.4Z" fill="none" stroke="#0fb7ff" stroke-linecap="round" stroke-linejoin="round" stroke-width="4"/><path d="M3,3,24.524,24.524" fill="none" stroke="#0fb7ff" stroke-linecap="round" stroke-linejoin="round" stroke-width="4"/><path d="M24.849,19.175A5.675,5.675,0,1,1,19.175,13.5,5.675,5.675,0,0,1,24.849,19.175Z" transform="translate(9.361 9.361)" fill="none" stroke="#0fb7ff" stroke-linecap="round" stroke-linejoin="round" stroke-width="4"/></g></g></svg>