<svg xmlns="http://www.w3.org/2000/svg" xmlns:xlink="http://www.w3.org/1999/xlink" width="88" height="76.999" viewBox="0 0 88 76.999"><defs><linearGradient id="a" x1="0.5" x2="0.5" y2="1" gradientUnits="objectBoundingBox"><stop offset="0" stop-color="#ffbdff"/><stop offset="0.1" stop-color="#f5bfff"/><stop offset="0.26" stop-color="#dbc4ff"/><stop offset="0.47" stop-color="#b0ccff"/><stop offset="0.72" stop-color="#75d8ff"/><stop offset="0.909" stop-color="#2ae6ff"/><stop offset="1" stop-color="#29e6ff"/></linearGradient></defs><g transform="translate(-339 -5789)"><g transform="translate(6973 5771)" fill="none"><path d="M-6590,95a43.731,43.731,0,0,1-17.127-3.458,43.854,43.854,0,0,1-13.985-9.429,43.858,43.858,0,0,1-9.43-13.986A43.729,43.729,0,0,1-6634,51h88a43.731,43.731,0,0,1-3.458,17.127,43.853,43.853,0,0,1-9.43,13.986,43.858,43.858,0,0,1-13.986,9.429A43.731,43.731,0,0,1-6590,95Z" stroke="none"/><path d="M -6590.00048828125 89.99918365478516 C -6584.73291015625 89.99918365478516 -6579.6259765625 88.96876525878906 -6574.82080078125 86.93665313720703 C -6570.17724609375 84.97261810302734 -6566.005859375 82.15998077392578 -6562.42236328125 78.57669830322266 C -6558.83984375 74.99461364746094 -6556.02685546875 70.82331848144531 -6554.06201171875 66.17938232421875 C -6552.6796875 62.9107666015625 -6551.76123046875 59.50278472900391 -6551.31494140625 55.99971771240234 L -6628.6845703125 55.99971771240234 C -6628.23828125 59.5028190612793 -6627.31982421875 62.91081237792969 -6625.9375 66.17900085449219 C -6623.9736328125 70.82221984863281 -6621.16064453125 74.9935302734375 -6617.5771484375 78.57695007324219 C -6613.994140625 82.16013336181641 -6609.82275390625 84.97273254394531 -6605.1796875 86.93656921386719 C -6600.37451171875 88.96876525878906 -6595.267578125 89.99918365478516 -6590.00048828125 89.99918365478516 M -6590.00048828125 94.99918365478516 C -6595.93994140625 94.99918365478516 -6601.70263671875 93.83589935302734 -6607.12744140625 91.54166412353516 C -6612.3662109375 89.32585144042969 -6617.07177734375 86.15345001220703 -6621.11279296875 82.11253356933594 C -6625.1533203125 78.07191467285156 -6628.326171875 73.36647033691406 -6630.54248046875 68.12686920166016 C -6632.8369140625 62.70161819458008 -6634 56.93921661376953 -6634 50.99971771240234 L -6545.99951171875 50.99971771240234 C -6545.99951171875 56.94034957885742 -6547.1630859375 62.70243453979492 -6549.45703125 68.12686920166016 C -6551.673828125 73.36673736572266 -6554.84619140625 78.07218170166016 -6558.88720703125 82.11253356933594 C -6562.92822265625 86.1531982421875 -6567.6337890625 89.32561492919922 -6572.873046875 91.54166412353516 C -6578.2978515625 93.83589935302734 -6584.060546875 94.99918365478516 -6590.00048828125 94.99918365478516 Z" stroke="none" fill="#0fb7ff"/></g><circle cx="33" cy="33" r="33" transform="translate(350 5789)" fill="url(#a)"/><path d="M15.212,17.386A8.693,8.693,0,1,0,6.52,8.693,8.692,8.692,0,0,0,15.212,17.386ZM21.718,19.6l-3.246,13L16.3,23.362l2.173-3.8h-6.52l2.173,3.8L11.953,32.6l-3.246-13A9.112,9.112,0,0,0,0,28.686v2.825a3.261,3.261,0,0,0,3.26,3.26H27.165a3.261,3.261,0,0,0,3.26-3.26V28.686A9.112,9.112,0,0,0,21.718,19.6Z" transform="translate(367.585 5800.56)" fill="#fafcff"/></g></svg>