<svg xmlns="http://www.w3.org/2000/svg" width="209.174" height="77.682" viewBox="0 0 209.174 77.682">
  <g id="Group_224" data-name="Group 224" transform="translate(-20478.682 -328.365)">
    <rect id="Rectangle_312" data-name="Rectangle 312" width="174.379" height="38.841" transform="translate(20485.209 367.206)" fill="#f27d82"/>
    <rect id="Rectangle_313" data-name="Rectangle 313" width="90.114" height="38.841" transform="translate(20485.209 328.365)" fill="#fab540"/>
    <rect id="Rectangle_314" data-name="Rectangle 314" width="14.134" height="19.429" transform="translate(20659.59 347.794)" fill="#f27c83"/>
    <rect id="Rectangle_315" data-name="Rectangle 315" width="14.134" height="6.841" transform="translate(20673.723 367.206)" fill="#f27c83"/>
    <rect id="Rectangle_316" data-name="Rectangle 316" width="14.134" height="3.421" transform="translate(20673.723 376.843)" fill="#f27c83"/>
    <rect id="Rectangle_317" data-name="Rectangle 317" width="14.134" height="2.17" transform="translate(20673.723 383.059)" fill="#f27c83"/>
    <rect id="Rectangle_318" data-name="Rectangle 318" width="14.134" height="1.094" transform="translate(20673.723 387.712)" fill="#f27c83"/>
    <rect id="Rectangle_319" data-name="Rectangle 319" width="6.528" height="62.003" transform="translate(20478.682 337.22)" fill="#ebebeb"/>
    <path id="Path_2314" data-name="Path 2314" d="M25.123,25.965c.33.486.208.972-.469.972H20.139a1.632,1.632,0,0,1-1.354-.972l-5.1-7.9h-.347v7.9c0,.677-.226.972-.9.972H8.958c-.677,0-.938-.3-.938-.972v-20c0-.677.26-.972.938-.972H12.43c.677,0,.9.3.9.972v8.23h.313l4.948-8.23a1.736,1.736,0,0,1,1.545-.955h3.716c.677,0,.781.451.451.972l-6.112,9.793Z" transform="translate(20484.588 332.039)" fill="#fff"/>
    <path id="Path_2315" data-name="Path 2315" d="M24.513,25.965c0,.677-.226.972-.9.972H20.138c-.677,0-.938-.3-.938-.972v-20c0-.677.26-.972.938-.972H23.61c.677,0,.9.3.9.972Z" transform="translate(20492.818 332.039)" fill="#fff"/>
    <path id="Path_2316" data-name="Path 2316" d="M25.339,26.937c-.573,0-.8-.313-.8-.972v-20c0-.677.26-.972.938-.972H32.77c5.99.017,8.2,2.743,8.2,5.521v10.9c0,2.778-2.188,5.521-8.265,5.521ZM29.784,9.348V22.579h2.9c1.58,0,2.934-.608,2.934-2.1V11.449c0-1.493-1.354-2.1-2.934-2.1Z" transform="translate(20496.752 332.039)" fill="#fff"/>
    <path id="Path_2317" data-name="Path 2317" d="M37.276,4.4c0-.677.26-.955.938-.955h3.473c.677,0,.9.278.9.955V6.957c0,2.622-1.736,4.358-5.313,5.209-.66.156-.972,0-1.2-.642L35.3,9.319c-.226-.642,0-1.007.642-1.2,1.111-.313,1.389-.712,1.389-1.406Z" transform="translate(20504.607 330.905)" fill="#fff"/>
    <path id="Path_2318" data-name="Path 2318" d="M51.482,11.088c0-1.493-1.042-2.031-2.518-2.031s-2.535.538-2.535,2.031V11.4a1.458,1.458,0,0,0,1.024,1.389l5.435,1.84a5.209,5.209,0,0,1,3.959,4.879V21.8c0,2.778-1.962,5.521-8.039,5.521S40.7,24.579,40.7,21.8V19.648c0-.677.26-.972.938-.972h3.368c.677,0,.9.3.9.972v1.441c0,1.493,1.25,2.031,2.848,2.031s2.882-.538,2.882-2.031v-.642c0-1.163-1.545-1.736-2.778-2.17L44.207,16.54a4.81,4.81,0,0,1-2.986-4.289v-1.91c0-2.778,1.736-5.521,7.657-5.521s7.8,2.778,7.8,5.521v1.2c0,.677-.26.972-.938.972H52.385c-.677,0-.9-.3-.9-.972Z" transform="translate(20508.648 331.914)" fill="#fff"/>
    <path id="Path_2319" data-name="Path 2319" d="M8.978,49.144c-.677,0-.938-.3-.938-.972V28.152c0-.677.26-.972.938-.972h6.06c6.077,0,8.213,2.257,8.213,5.035v1.736a3.959,3.959,0,0,1-2.205,3.594,4.41,4.41,0,0,1,3.264,3.872v2.4c0,2.761-2.136,5.209-8.2,5.209ZM13.37,31.382v4.653h1.736c1.58,0,2.934-.625,2.934-2.136v-.833c0-1.493-1.354-1.736-2.934-1.736Zm0,8.577v4.983h2.743c1.58,0,2.934-.59,2.934-2.066V41.834c0-1.215-1.354-1.875-2.934-1.875Z" transform="translate(20484.602 348.378)" fill="#fff"/>
    <path id="Path_2320" data-name="Path 2320" d="M19,32.551c0-2.778,2.153-5.521,8.23-5.521s8.265,2.743,8.265,5.521V43.976c0,2.778-2.205,5.521-8.265,5.521S19,46.754,19,43.976Zm11.164.938c0-1.476-1.354-2.1-2.934-2.1s-2.9.625-2.9,2.1v9.567c0,1.476,1.32,2.084,2.9,2.084s2.934-.608,2.934-2.084Z" transform="translate(20492.672 348.267)" fill="#fff"/>
    <path id="Path_2321" data-name="Path 2321" d="M30.34,32.551c0-2.778,2.17-5.521,8.247-5.521s8.265,2.743,8.265,5.521V43.976c0,2.778-2.205,5.521-8.265,5.521s-8.247-2.743-8.247-5.521Zm11.182.938c0-1.476-1.354-2.1-2.934-2.1s-2.917.625-2.917,2.1v9.567c0,1.476,1.32,2.084,2.917,2.084s2.934-.608,2.934-2.084Z" transform="translate(20501.021 348.267)" fill="#fff"/>
    <path id="Path_2322" data-name="Path 2322" d="M55.468,27.18c.677,0,.972.226.972.9V30.6c0,.677-.3.938-.972.938H51.335V48.172c0,.677-.226.972-.9.972H46.96c-.677,0-.938-.3-.938-.972V31.538h-4.15c-.677,0-.972-.26-.972-.938V28.083c0-.677.3-.9.972-.9Z" transform="translate(20508.795 348.378)" fill="#fff"/>
    <path id="Path_2323" data-name="Path 2323" d="M66.752,43.976c0,2.778-1.91,5.574-7.987,5.574s-7.935-2.743-7.935-5.521V32.551c0-2.778,1.875-5.521,7.935-5.521s7.987,2.743,7.987,5.521v1.493c0,.677-.226.972-.9.972H62.481c-.677,0-.938-.3-.938-.972v-.556c0-1.476-1.129-2.1-2.709-2.1s-2.674.625-2.674,2.1v9.567c0,1.476,1.094,2.084,2.674,2.084s2.709-.608,2.709-2.084V42.014c0-.677.26-.972.938-.972h3.334c.677,0,.9.3.9.972Z" transform="translate(20516.107 348.267)" fill="#fff"/>
    <path id="Path_2324" data-name="Path 2324" d="M72.578,28.154l5.834,20.02c.208.608,0,.972-.695.972H74.123c-.677,0-.972-.365-1.129-.972l-.833-3.108H66.8l-.833,3.108c-.174.608-.451.972-1.129.972H61.57c-.677,0-.9-.365-.712-.972l5.851-20.02a1.111,1.111,0,0,1,1.181-.972h3.473a1.129,1.129,0,0,1,1.215.972ZM70.546,39.128a63.824,63.824,0,0,1-1.007-6.754,52.586,52.586,0,0,1-1.094,6.754l-.486,1.736H71Z" transform="translate(20523.443 348.376)" fill="#fff"/>
    <path id="Path_2325" data-name="Path 2325" d="M92.8,48.173c0,.677-.226.972-.9.972H88.564c-.677,0-.938-.3-.938-.972V37.929c0,.1-.642,2.361-1.024,3.473l-1.424,3.473a1.267,1.267,0,0,1-1.267.972h-2.8c-.66,0-.972-.382-1.233-.972l-1.736-4.1a23.785,23.785,0,0,1-.851-2.709v10.14c0,.677-.226.972-.9.972H73.2c-.677,0-.938-.3-.938-.972V28.154c0-.677.26-.972.938-.972h3.16a.833.833,0,0,1,.851.521l4.393,9.88c.451,1.094.868,2.413.92,2.552a20.247,20.247,0,0,1,.938-2.483L87.7,27.633c.122-.313.382-.451.868-.451H91.9c.677,0,.9.3.9.972Z" transform="translate(20531.887 348.376)" fill="#fff"/>
    <path id="Path_2326" data-name="Path 2326" d="M91.626,41.678v6.494c0,.677-.226.972-.9.972H87.25c-.677,0-.92-.3-.92-.972V28.152c0-.677.243-.972.92-.972H94.2c6.077,0,8.2,2.743,8.2,5.521v3.473c0,2.778-2.118,5.521-8.2,5.521Zm0-10.14v5.747h2.587c1.58,0,2.934-.608,2.934-2.1V33.639c0-1.493-1.354-2.1-2.934-2.1Z" transform="translate(20542.246 348.378)" fill="#fff"/>
  </g>
</svg>
